<svg width="675" height="408" xmlns="http://www.w3.org/2000/svg"><defs><radialGradient cx="-1.5%" cy="57.1%" fx="-1.5%" fy="57.1%" r="230.5%" gradientTransform="matrix(.3889 .08033 -.03134 .99677 0 0)" id="a"><stop stop-color="#7787C2" offset="0%"/><stop stop-color="#7787C3" stop-opacity=".1" offset="100%"/></radialGradient><linearGradient x1="50%" y1="0%" x2="50%" y2="100%" id="b"><stop stop-color="#F1F6FF" offset="0%"/><stop stop-color="#F7FAFF" offset="100%"/></linearGradient><linearGradient x1="104.4%" y1="50%" x2="-10%" y2="50%" id="c"><stop stop-color="#CBD3E0" offset="0%"/><stop stop-color="#90A1BD" offset="23.5%"/><stop stop-color="#DCE0E8" offset="46.6%"/><stop stop-color="#CAD1DC" offset="69.2%"/><stop stop-color="#EBEEF2" offset="100%"/></linearGradient><linearGradient x1="50%" y1="0%" x2="50%" y2="100%" id="d"><stop stop-color="#F1F6FF" offset="0%"/><stop stop-color="#F7FAFF" offset="100%"/></linearGradient><linearGradient x1="50%" y1="0%" x2="50%" y2="100%" id="e"><stop stop-color="#F1F6FF" offset="0%"/><stop stop-color="#F7FAFF" offset="100%"/></linearGradient><linearGradient x1="24.4%" y1="0%" x2="71.1%" y2="100%" id="f"><stop stop-color="#8892BD" offset="0%"/><stop stop-color="#555A6F" offset="100%"/></linearGradient><radialGradient cx="1.1%" cy="99.8%" fx="1.1%" fy="99.8%" r="245.5%" gradientTransform="matrix(.37378 -.13416 .0506 .99096 0 0)" id="g"><stop stop-color="#7787C2" offset="0%"/><stop stop-color="#7787C3" stop-opacity="0" offset="100%"/></radialGradient><linearGradient x1="17.7%" y1="38.3%" x2="79.6%" y2="66.6%" id="h"><stop stop-color="#FEFEFF" offset="0%"/><stop stop-color="#F1F6FF" offset="100%"/></linearGradient><path id="i" d="M43 3.8l7 14.4-18.4 10.5-25-3.8L0 10.3 18.1 0z"/><linearGradient x1="110.8%" y1="49%" x2="0%" y2="50%" id="j"><stop stop-color="#CBD3E0" offset="0%"/><stop stop-color="#90A1BD" offset="23.5%"/><stop stop-color="#DCE0E8" offset="46.6%"/><stop stop-color="#CAD1DC" offset="69.2%"/><stop stop-color="#EBEEF2" offset="100%"/></linearGradient><linearGradient x1="7.9%" y1="33.2%" x2="84.7%" y2="66.8%" id="k"><stop stop-color="#8892BD" offset="0%"/><stop stop-color="#555A6F" offset="100%"/></linearGradient><linearGradient x1="7.9%" y1="33.2%" x2="84.7%" y2="66.8%" id="l"><stop stop-color="#8892BD" offset="0%"/><stop stop-color="#555A6F" offset="100%"/></linearGradient><linearGradient x1="7.9%" y1="33.2%" x2="84.7%" y2="66.8%" id="m"><stop stop-color="#8892BD" offset="0%"/><stop stop-color="#555A6F" offset="100%"/></linearGradient><linearGradient x1="7.9%" y1="22.3%" x2="84.7%" y2="77.7%" id="n"><stop stop-color="#8892BD" offset="0%"/><stop stop-color="#555A6F" offset="100%"/></linearGradient><linearGradient x1="20.5%" y1="0%" x2="74.3%" y2="100%" id="o"><stop stop-color="#8892BD" offset="0%"/><stop stop-color="#555A6F" offset="100%"/></linearGradient><radialGradient cx="1.1%" cy="99.8%" fx="1.1%" fy="99.8%" r="103.7%" gradientTransform="matrix(.93441 -.1328 .1252 .99114 -.1 0)" id="p"><stop stop-color="#7787C2" offset="0%"/><stop stop-color="#7787C3" stop-opacity="0" offset="100%"/></radialGradient><linearGradient x1="48.8%" y1="112.7%" x2="51.1%" y2="8.4%" id="q"><stop stop-color="#ECF2FA" offset="0%"/><stop stop-color="#D5E0F3" offset="100%"/></linearGradient><linearGradient x1="100%" y1="51.2%" x2="0%" y2="50%" id="r"><stop stop-color="#CBD3E0" offset="0%"/><stop stop-color="#90A1BD" offset="23.5%"/><stop stop-color="#DCE0E8" offset="46.6%"/><stop stop-color="#CAD1DC" offset="69.2%"/><stop stop-color="#EBEEF2" offset="100%"/></linearGradient><linearGradient x1="17.7%" y1="37.7%" x2="79.6%" y2="67.5%" id="s"><stop stop-color="#FEFEFF" offset="0%"/><stop stop-color="#F1F6FF" offset="100%"/></linearGradient><linearGradient x1="7.9%" y1="24.7%" x2="84.7%" y2="75.3%" id="t"><stop stop-color="#8892BD" offset="0%"/><stop stop-color="#555A6F" offset="100%"/></linearGradient><linearGradient x1="-3.1%" y1="43.6%" x2="107.9%" y2="55.3%" id="u"><stop stop-color="#F1F6FF" offset="0%"/><stop stop-color="#FCFDFF" offset="34.1%"/><stop stop-color="#EAF2FE" offset="100%"/></linearGradient><linearGradient x1="100%" y1="50.8%" x2="0%" y2="50%" id="v"><stop stop-color="#CBD3E0" offset="0%"/><stop stop-color="#90A1BD" offset="23.5%"/><stop stop-color="#DCE0E8" offset="46.6%"/><stop stop-color="#CAD1DC" offset="69.2%"/><stop stop-color="#EBEEF2" offset="100%"/></linearGradient><linearGradient x1="7.9%" y1="33.9%" x2="84.7%" y2="66.1%" id="w"><stop stop-color="#8892BD" offset="0%"/><stop stop-color="#555A6F" offset="100%"/></linearGradient><linearGradient x1="7.9%" y1="31.3%" x2="84.7%" y2="68.7%" id="x"><stop stop-color="#8892BD" offset="0%"/><stop stop-color="#555A6F" offset="100%"/></linearGradient><linearGradient x1="7.9%" y1="33.7%" x2="84.7%" y2="66.3%" id="y"><stop stop-color="#8892BD" offset="0%"/><stop stop-color="#555A6F" offset="100%"/></linearGradient><linearGradient x1="7.9%" y1="35.3%" x2="84.7%" y2="64.7%" id="z"><stop stop-color="#8892BD" offset="0%"/><stop stop-color="#555A6F" offset="100%"/></linearGradient><radialGradient cx="-4.6%" cy="95.8%" fx="-4.6%" fy="95.8%" r="98.4%" gradientTransform="scale(1 .93053) rotate(-6.2 .6 1)" id="A"><stop stop-color="#7787C2" offset="0%"/><stop stop-color="#7787C3" stop-opacity="0" offset="100%"/></radialGradient><linearGradient x1="50%" y1="0%" x2="50%" y2="100%" id="B"><stop stop-color="#F1F6FF" offset="0%"/><stop stop-color="#D5E1F7" offset="100%"/></linearGradient><linearGradient x1="16.1%" y1="0%" x2="77.9%" y2="100%" id="C"><stop stop-color="#8892BD" offset="0%"/><stop stop-color="#555A6F" offset="100%"/></linearGradient><linearGradient x1="100%" y1="51.2%" x2="0%" y2="50%" id="D"><stop stop-color="#CBD3E0" offset="0%"/><stop stop-color="#90A1BD" offset="23.5%"/><stop stop-color="#DCE0E8" offset="46.6%"/><stop stop-color="#CAD1DC" offset="69.2%"/><stop stop-color="#EBEEF2" offset="100%"/></linearGradient><linearGradient x1="7.9%" y1="32.5%" x2="84.7%" y2="67.5%" id="E"><stop stop-color="#8892BD" offset="0%"/><stop stop-color="#555A6F" offset="100%"/></linearGradient></defs><g fill="none" fill-rule="evenodd"><path d="M105.7 65.6l3-1.7.8 7.2-12.4-.6 4.2-2.4-25-14.6 4.3-2.6 25 14.7z" fill="#3A51C6" opacity=".6"/><path d="M5.5 51.7L47.9 49l-7.7-12c-3.4-2.3-7.4-2.4-12-.5-4.4 2-12 7-22.7 15.2z" fill="url(#a)" opacity=".2" transform="translate(43.5 .9)"/><path d="M68.3 40.3v.9l-14.6 8.3V33.4v16l-.8-.4v1l-4 2.2-3.9-2.3V31.3v-.7-.1-.1l.1-.4v-.2l.1-.3v-.2h.1V29l.1-.1v-.2l.1-.2.2-.4V28l.2-.3v-.2h.2v-.2l.2-.3v-.1l.3-.4v-.2l.2-.2h.1l.1-.3h.1l.1-.2.2-.2.1-.1.1-.1.3-.3.1-.1v-.1a8.8 8.8 0 0 1 .5-.4l.1-.1.3-.2.2-.1.4-.3 6-3.4-3.1-1.8c-1.2-.6-2-2-2-4.1l.1-.7v-.2-.4-.1l.2-.5v-.2-.2l.1-.3v-.3l.1-.1.1-.3.1-.2.1-.3v-.2l.1-.1.3-.6v-.1l.2-.5.1-.2.1-.1.1-.2.2-.4V8h.1l.3-.6.2-.3.2-.3.1-.1.2-.3.1-.1.2-.2.3-.4.2-.2.4-.5.2-.1.1-.2a15 15 0 0 1 .6-.5l.2-.2c.2 0 .3-.2.4-.3l.2-.1a9 9 0 0 1 1.4-.8h.2l.1-.1.5-.2H58.8l.3-.1H60.9l.2.1h.1a3 3 0 0 1 .4.3l4 2.2h-.1c1.2.6 2 2 2 4.1a12.3 12.3 0 0 1-1.4 5.4H67.4v.1a2.1 2.1 0 0 1 .3.1l4 2.3c.8.4 1.3 1.4 1.3 2.9v18.6l-4 2.2V24.6v16.1zm-15-14.4h.1l15-8.6-15 8.6zm7.5-20.4z" stroke="#555A6F" stroke-width="2.7" fill="#F1F6FF" stroke-linecap="round" stroke-linejoin="round"/><path fill="#D5E0F3" d="M69 40.7l-3.8-2.2V22.3l3.8 2.3zM53.7 49.5l-4-2.3V31.1l4 2.3z"/><path d="M26 15.2a4.3 4.3 0 0 1 .9-.3h.8l.3.2h.1l.3.1-4-2.2-.2-.2H24h-.1-.1v-.1h-.3-.1-.2-.1-.1-.5l-.2.1-.3.1H22v.1c-.3 0-.4.2-.6.3l-15 8.5-.5.3-.1.1-.3.2-.2.1a8.7 8.7 0 0 0-.4.4l-.2.2-.3.3v.1l-.1.1-.2.2-.1.2h-.1l-.1.2-.1.2-.2.2v.1l-.3.4v.1l-.2.3-.1.1v.2l-.1.1-.2.3-.2.5v.2l-.1.2v.2l-.1.1v.2l-.1.2v.2h-.1V28.7l-.1.1v19.5l4 2.2-.1-18.6V31v-.2-.3l.1-.3.1-.2a8.8 8.8 0 0 1 .3-.8V29l.2-.5a10.6 10.6 0 0 1 .5-1l.4-.6a10 10 0 0 1 .8-1l.2-.2a9.7 9.7 0 0 1 1.3-1.2l.1-.1.5-.3 15-8.6.6-.3h.1" fill="url(#b)" transform="translate(43.3 1.8)"/><path d="M19.9 15.5c2.5-1.4 4.5-.2 4.5 2.6v18.6l-3.9 2.2V23l-.8.4v16L5.2 47.8V31.6l-.8.4v16.2L.5 50.4V31.8c0-2.8 2-6.3 4.5-7.7l15-8.6z" fill="url(#c)" transform="translate(48.6 1.8)"/><path d="M11.8 13.8a10.2 10.2 0 0 1 .2-1v-.3l.1-.3.2-.5v-.2l.2-.5.1-.3.3-.7a14.8 14.8 0 0 1 .7-1.4l.1-.2.4-.6.1-.2a15.8 15.8 0 0 1 1-1.4c.2 0 .3-.2.3-.3l.5-.4.2-.3a15 15 0 0 1 .6-.5l.3-.2.4-.3.2-.1a9.5 9.5 0 0 1 1.2-.7h.1l.4-.2a6.5 6.5 0 0 1 1.3-.4H22l.4.2.5.2L19 1a3 3 0 0 0-.4-.2h-.1l-.2-.1H18 18V.5H17 17h-.2-.2-.4l-.2.1H16l-.5.2h-.1l-.2.2a6.4 6.4 0 0 0-.7.3 9 9 0 0 0-.7.4l-.2.2-.4.3-.2.1a13.2 13.2 0 0 0-.6.6l-.1.1-.1.1-.5.5-.1.1-.1.2-.3.3-.2.2v.2l-.3.2V5c-.2 0-.2.2-.3.3l-.1.1v.1a16.1 16.1 0 0 0-.4.6v.1c-.2.1-.2.3-.3.4l-.1.2-.1.2v.1l-.3.5v.1l-.3.6-.1.3-.1.3v.2l-.2.3v.4l-.2.4v.3l-.1.5v.5l-.1.2v.7c0 2 .7 3.5 1.9 4.2l3.9 2.2c-1.2-.7-1.9-2-1.9-4.1V14v-.3" fill="url(#d)" transform="translate(42.6 1.8)"/><path d="M60.9 5.5c3.6-2.1 6.5-.5 6.5 3.6s-2.9 9-6.5 11.1c-3.6 2-6.5.4-6.5-3.6 0-4.1 2.9-9.1 6.5-11.1" stroke="#B1B7C6" stroke-width=".5" fill="#D5E0F3"/><g><path d="M86.7 31.1c-.4 4.9-2.5 9-6.4 12.2-3.1 2.1-5.8 2.5-8.1 1.2l-2.4-2.1c-4.1-3.7-4.6-8.6-1.3-14.6 3.4-5.8 7.5-7.6 12.2-5.5l3.4 1.9c1.9 1.3 2.7 3.7 2.6 7z" fill="#FFFDFD"/><path d="M3.1 2.8l5-2.2c3.6-1.2 7 .6 10.4 5.5 5.3 8.2 1.2 13.6-.5 15.1a9.2 9.2 0 0 0-2 2.1c3-3.9 3-8.6-.3-14C12.1 3.8 8 1.6 3.1 2.9z" fill="url(#e)" transform="matrix(-1 0 0 1 87.2 20.9)"/><path d="M78.1 44.6c-4.9 2.2-8.9-.6-8.9-6.3s4-12.1 9-14.3c4.8-2.2 8.8.7 8.8 6.4s-4 12-8.9 14.2z" fill="#D5E0F3"/><path d="M78.1 44.6c-4.9 2.2-8.9-.6-8.9-6.3s4-12.1 9-14.3c4.8-2.2 8.8.7 8.8 6.4s-4 12-8.9 14.2z" stroke-opacity=".6" stroke="#7787C3" stroke-width=".5"/><path d="M86.7 31.1c-.4 4.9-2.5 9-6.4 12.2-3.1 2.1-5.8 2.5-8.1 1.2l-2.4-2.1c-4.1-3.7-4.6-8.6-1.3-14.6 3.4-5.8 7.5-7.6 12.2-5.5l3.4 1.9c1.9 1.3 2.7 3.7 2.6 7z" stroke="#555A6F" stroke-width="1.3" stroke-linejoin="round"/><path d="M17 7.6c-1-.6-2.3-.6-3.8.2-1.5 1-3 2.5-3.8 4.3l2.1.2a5 5 0 0 1 1.7-1.7c.7-.4 1.3-.5 1.8-.2l2-2.6v-.2zm-4.5 14c-3.3 1.4-6-.4-6-4.3 0-1 .2-2 .6-3.2l.8-2.1a14 14 0 0 1 5.3-6.1c2.1-1.2 4-1.2 5.3 0l.9 1.2c.3.7.5 1.6.5 2.6 0 3.8-2.4 8.3-5.6 10.7-.5.5-1 .7-1.8 1.1zm1.8-3.1c2.2-1.9 3.9-5.1 3.9-7.8a5 5 0 0 0-.3-1.7l-2.2 2.7v.3c0 1.3-.6 2.7-1.5 3.7v-.3V18.5zM14 13c0-.5-.4-.8-.9-.5-.5.3-.9 1-.8 1.5 0 .6.3.8.8.5.5-.3.9-1 .9-1.5zm-5.5 1.2l-.3 2.2c0 2.8 1.8 4.1 4.2 3.1v-2.8c-1 .3-1.8-.4-1.8-1.7v-.6l-2.1-.2z" fill="url(#f)" fill-rule="nonzero" transform="translate(65.4 20.9)"/></g><g><path d="M57.9 56.5l-3-2.9-3 2.9H6A2.5 2.5 0 0 0 3.6 59v9.9c0 1.4 1.1 2.5 2.5 2.5h70c1.4 0 2.5-1.1 2.5-2.5v-10c0-1.3-1.1-2.4-2.5-2.4H58z" stroke="#555A6F" fill="#F0F1F7"/><path d="M13.6 60.1h2.6c1.1 0 2 .4 2.6 1 .6.6.9 1.5.9 2.6s-.3 2-1 2.6c-.5.7-1.4 1-2.5 1h-2.6V60zm1 1v5.3H16c.9 0 1.5-.3 2-.7.4-.4.6-1 .6-2 0-.9-.2-1.6-.6-2-.4-.4-1.1-.6-2-.6h-1.3zm8.3.9c.8 0 1.4.3 1.9.8.4.6.6 1.3.6 2.2h-4l.5 1.2c.2.2.6.4 1 .4s.7-.1.9-.3c.2-.1.3-.4.5-.7h1c-.1.5-.3 1-.7 1.2-.4.4-1 .6-1.7.6-.8 0-1.4-.2-1.8-.7-.5-.5-.7-1.2-.7-2s.2-1.4.6-2c.5-.5 1.1-.7 1.9-.7zm0 .8c-.4 0-.7.2-1 .4-.2.2-.3.6-.4 1h2.8c-.1-.9-.6-1.4-1.4-1.4zm2.9-.7h1.1l1.3 3.9 1.3-3.9h1.2l-2 5.2h-1l-2-5.2zm8.8-2.1c1 0 2 .4 2.6 1 .6.7.9 1.6.9 2.7s-.3 2-1 2.7c-.6.7-1.4 1-2.5 1s-2-.3-2.6-1c-.6-.7-.9-1.6-.9-2.7 0-1 .3-2 1-2.6.5-.7 1.4-1.1 2.5-1.1zm0 1c-.8 0-1.4.2-1.8.7a3 3 0 0 0-.6 2c0 .9.2 1.5.6 2 .4.5 1 .8 1.8.8.7 0 1.3-.3 1.7-.8a3 3 0 0 0 .7-2c0-.8-.3-1.5-.7-2-.4-.5-1-.7-1.7-.7zm7 1c.8 0 1.4.2 1.8.8.4.5.6 1.1.6 2a3 3 0 0 1-.6 1.8c-.4.6-1 .8-1.7.8-.6 0-1.2-.3-1.6-.9v2.8h-1V62h1v.6c.3-.5.8-.7 1.5-.7zm-.1.8c-.5 0-.8.2-1 .6-.3.3-.4.7-.4 1.3 0 .6.1 1 .4 1.4.2.3.6.5 1 .5.5 0 .9-.2 1.1-.5.2-.4.3-.8.3-1.4 0-.5 0-1-.3-1.3-.2-.4-.6-.6-1.1-.6zM47 62c1.3 0 2 .5 2.2 1.6h-1l-.4-.6-.8-.2c-.4 0-.6 0-.8.2-.2 0-.3.2-.3.4s.2.4.5.5l1 .3 1.3.5c.4.3.6.6.6 1 0 1.2-.7 1.7-2.3 1.7-1.4 0-2.1-.6-2.3-1.8h1l.4.8 1 .2c.7 0 1.2-.3 1.2-.7 0-.3-.2-.5-.5-.6l-1-.3-1.3-.5c-.4-.2-.6-.6-.6-1 0-.5.2-.9.5-1.1.4-.3 1-.4 1.6-.4zM55 59v2.2c.5 2.7 2 4.7 4.2 6.1l-.6.9c-2-1.3-3.3-3-4-5.2-.7 2.1-2 3.8-4.2 5.2l-.5-.9c2.7-1.6 4-3.9 4.1-6.7V59h1zm13 3.6v3.8h-1v-3h-5v3.1h-.9v-4h7zm-6.3-3.3h5.7V62h-5.7v-2.7zm4.8 1.8v-1h-3.9v1h3.9zm-2.3 2.9h1c-.2 1.5-.5 2.5-1 3-.5.7-1.7 1-3.7 1.3l-.3-1c1.6 0 2.7-.3 3.2-.8.4-.5.7-1.3.8-2.5zm1.1 2.2l3.6 1.3-.5.8c-1.1-.6-2.3-1-3.5-1.4l.4-.7z" fill="#000"/></g><path d="M168.8 109l-8-4.6 4.2-2.6 8.2 4.7 115.1-68.3 14.2 8.4 3-1.7.8 7.2-12.4-.5 4.2-2.4-10.1-6L66.5 174.5l10 6 3-1.6.9 7.2-12.5-.6 4.2-2.4-14-8.4L168.7 109z" fill="#3A51C6" opacity=".6"/><g><path d="M132.5 106.5l-3-2.8-3 2.8H68.9a2.5 2.5 0 0 0-2.5 2.5v10c0 1.3 1.1 2.4 2.5 2.4h82.7c1.4 0 2.5-1 2.5-2.5V109c0-1.3-1-2.5-2.5-2.5h-19z" stroke="#555A6F" fill="#F0F1F7"/><path d="M78.7 110c.8 0 1.5.3 2 .7.5.4.9 1 1 1.7h-1c-.2-.5-.4-.8-.8-1-.3-.3-.7-.4-1.3-.4-.7 0-1.3.3-1.7.8-.4.5-.6 1.1-.6 2 0 .8.2 1.5.6 2 .4.5 1 .7 1.8.7.5 0 1-.1 1.3-.4.3-.3.6-.7.7-1.2h1c0 .8-.5 1.4-1 2a3 3 0 0 1-2 .6c-1.2 0-2-.4-2.7-1.1a4 4 0 0 1-.7-2.6c0-1 .2-2 .8-2.6.6-.8 1.4-1.1 2.6-1.1zm6.7 0c.8 0 1.5.2 2 .6.4.4.7 1 .8 1.7H87c-.1-.5-.3-.8-.6-1-.2-.2-.6-.3-1.2-.3-.5 0-.8 0-1 .2-.4.2-.5.4-.5.8 0 .3.1.6.5.7l1.2.5 2 .7c.5.4.8.9.8 1.5 0 .7-.2 1.2-.7 1.5-.5.4-1.2.6-2.1.6-.9 0-1.6-.2-2-.5-.7-.5-1-1.1-1-2h1c.1.5.3 1 .6 1.2.3.2.8.3 1.4.3.5 0 1 0 1.3-.3.3-.1.5-.4.5-.7 0-.4-.3-.7-.7-1l-1.4-.4-1.7-.6c-.5-.4-.8-.8-.8-1.5 0-.6.2-1 .8-1.4.5-.4 1.1-.5 1.9-.5zm4 .2h5v1h-4v2h3.8v1h-3.8v2.2h4.2v1h-5.3v-7.2zm13.3 1.3l-.2.7.5 2.4c.3-.9.4-2 .5-3h-.8zm0 4.1a15 15 0 0 1-.6-2.2l-.5 1-.5-.6v-.1h-3v-.9h3.1v.7a15 15 0 0 0 1-4.4l.8.2c0 .4 0 .9-.2 1.3h1.8v1h-.3c0 1.6-.3 3-.8 4.2.4.7.8 1.3 1.3 1.7l-.6.8c-.4-.4-.8-1-1-1.6l-1.4 1.7-.5-.8c.6-.5 1-1.2 1.4-2zm-2.5 2.2l-.4-.8.2-.3v-1.6h-.8v.5c0 1.2-.3 2.1-1 2.7l-.6-.6c.4-.5.7-1.2.7-2.1v-1.3h2.6v2l.7-.7.2.8c-.5.6-1 1-1.6 1.4zm-1-8.7h.9v2.2h.5v-1.6h.7v2.4H98v-2.4h.8v1.6h.5v-2.2zm-2.2 0l.8.4c-.5 1-1.2 2-2.1 3l-.3-1c.7-.7 1.2-1.5 1.6-2.4zm0 2.7l.8.4-.5 1v5.2h-.9v-4l-.7.8-.3-.9c.7-.7 1.3-1.5 1.6-2.5zm10 .9v1.4h1.4v-1.4H107zm1.4-.9v-1.4H107v1.4h1.4zM107 115c-.1 1.4-.3 2.5-.7 3.4l-.8-.7c.4-.8.6-2 .6-3.3v-5h3.2v8c0 .6-.4 1-1 1h-.8l-.2-.9h.8c.2 0 .3-.1.3-.5v-2H107zm3.8-1v3.6l1.4-1c-.6-.8-1-1.7-1.2-2.6h-.2zm0 3.6v.8h-.9v-9h4.2l-.1 2.7c-.2.4-.5.6-1.2.6h-.8l-.3-.8h1.2l.2-.3.1-1.2h-2.4v2.8h3.4v.8c-.2 1-.5 1.8-.9 2.5l1.4 1-.4.9a8 8 0 0 1-1.5-1.2c-.4.5-1 .9-1.5 1.2l-.5-.8zm1-3.6c.2.7.5 1.3.9 1.8l.7-1.8h-1.6zm6.6-5l1 .2-.4.7h4.3v.8c-.6.7-1.3 1.3-2.2 1.8 1.1.4 2.3.6 3.6.8l-.4.9c-1.6-.2-3-.6-4.2-1.2-1.2.5-2.6 1-4.2 1.2l-.4-1a16 16 0 0 0 3.6-.8c-.5-.2-1-.6-1.4-.9l-1.1.8-.6-.7c1.2-.7 2-1.5 2.4-2.5zm1.7 3c.7-.3 1.3-.7 1.8-1.2h-3.5c.5.5 1 .9 1.7 1.2zm-.7 1.6h1l-.2 1h3.5c0 1.8-.2 2.8-.5 3.2-.3.3-.8.5-1.5.5h-1.2l-.2-1 1.2.2c.5 0 .9-.2 1-.4.1-.2.2-.7.2-1.6H120l-.3.7c-.5.9-1.7 1.6-3.5 2.2l-.6-.8c1.6-.5 2.7-1 3.2-1.7l.2-.4h-2.8v-.9h3l.2-1zm13.3-4.5h1v9.3h-1V109zm-5.7 3.5l-.3 1.4h3.9c0 1.7 0 2.8-.2 3.4-.2.6-.8.9-2 1l-1-.1-.1-1 1 .1c.6 0 1-.1 1.2-.5l.1-2h-3.9l.6-3.2h3.2v-1.4H126v-.8h4.5v3H127zm14.2-1.1a6 6 0 0 1-.5.6l-.5-.7c.5-.6.9-1.4 1-2.3h1l-.2.8h2.4v.7h-.5a4 4 0 0 1-.8 1.8l1.6.7-.4.7c-.7-.2-1.3-.5-1.8-.8l-1.7.7-.4-.8c.6 0 1-.3 1.4-.5-.3-.3-.5-.6-.6-1zm.4-.9v.1c.1.5.4.9.8 1.2.3-.4.5-.8.6-1.3h-1.4zm1.5 3.1l.4.8-2.8.2v.5h3v.7h-3v.4h3.8v.8h-3.8v.5c0 .5-.3.8-1 .8h-1.2l-.2-.8h1.1c.3 0 .4 0 .4-.3v-.2h-4v-.8h4v-.4h-3.4v-.7h3.4v-.5h-3l-.3-.6c2.6 0 4.8-.1 6.6-.4zm-6.2-4.6h.8v.4h1v-.4h.7v.4h1.1v.7h-1v.4h-.9v-.4h-.9v.4h-.5l-.1.2h3.1l-.1 2.4c0 .2-.2.4-.3.5a3 3 0 0 1-1.1.1h-.3l-.2-.4h-2v-1.2l-.2.2-.5-.6c.5-.4.8-.8 1-1.4h.4v-.2h-1.2v-.7h1.2v-.4zm2 4h.4v-.3-1.3h-2.5l-.2.4h2.2v1.2zm-.8-.2v-.5h-1v.5h1z" fill="#000"/><g><path fill="url(#g)" opacity=".2" d="M24.6 43.3l48.9.6-23-18.4z" transform="translate(112.7 60)"/><path fill="#F7FAFF" fill-rule="nonzero" d="M122 87.9V100l-6.6-14.4V73.5z"/><path d="M43 3.8l7 14.4-18.4 10.5-25-3.8L0 10.3 18.1 0z" fill="url(#h)" fill-rule="nonzero" transform="translate(115.4 62.7)"/><path fill="#C2CBD9" d="M165.2 81v12l-18.3 10.4.1-12z"/><g fill="#858FA8"><path d="M163.5 89.2v1.6l-1.6.9V90zM160.2 90.8v1.7l-1.6.8v-1.6z"/><path opacity=".5" d="M157.7 92.5v1.6l-1.6.9v-1.7z"/></g><path fill="url(#j)" d="M32.6 29.5v12l-25-3.8v-12z" transform="translate(114.5 61.8)"/><g fill="#858FA8"><path d="M144 98.6v2.5l-1.6-.3v-2.5zM141.4 98.4v2.2l-1.7-.3v-2.2z"/><path opacity=".5" d="M138.7 97.7v2.2l-1.6-.2v-2.2z"/></g><path stroke="#A6AEC1" stroke-width=".7" d="M165.2 81.2l-18.1 10.5-25-3.9-6.7-14.7"/><path stroke="#7D849E" stroke-width=".7" opacity=".4" d="M165.2 87l-18.1 10.5-25-3.9-7-14.9M147.4 91.7v11.8M121.9 99.7l.2-12"/><path stroke="#555A6F" stroke-width="1.3" d="M115 85.3V72.9l18.5-10.6 25.3 3.8 6.8 14.5v12.6l-18.5 10.6L122 100 115 85.5z"/><g fill-rule="nonzero"><path d="M19.7 6.3l2.6-.4.7-1.5-2-1.1-2.5.4-.7 1.5 2 1zM24.3 4l-1 2.3-4 .6-2.8-1.6 1-2.3 4-.6L24.2 4z" fill="url(#k)" transform="translate(125.4 69.1)"/><path d="M29.5 8.5l1.3-.2.4-.7-1-.6-1.3.2-.3.8 1 .5zm3-1.1l-.7 1.5-2.6.4-2-1.1.8-1.5 2.6-.5 2 1.2z" fill="url(#l)" transform="translate(125.4 69.1)"/><path d="M23.3 11.4l2.5-.4.7-1.5-1.9-1.1-2.6.4-.6 1.5 1.9 1zm4.6-2.2l-1 2.3-4 .6-2.9-1.6 1-2.3 4-.6 2.9 1.6z" fill="url(#m)" transform="translate(125.4 69.1)"/><path d="M4.3 9.4l4.1-.6 1.1-2.4-3-1.7-4 .6-1.2 2.4 3 1.7zM15 6l-4.1.6L9.7 9l3 1.7 4-.6L18 7.7l-3-1.7zm-8.3 8.3l4-.7 1.1-2.3-3-1.8-4 .7-1.1 2.3 3 1.8zm8.3 1.2L19 15l1.1-2.4-3-1.7-4 .6-1.2 2.4 3 1.7zM8.6 1.8L7.5 4l3 1.8 4-.7L15.8 3l-3-1.8-4.1.7zm12.8 10.5L20 15.5l-5.4.8-3.5-2-4.9.8-4-2.3 1.3-2.9L0 8l1.4-3.1L6.3 4l1.3-2.8L13 .4l4 2.3-1.3 2.8 3.5 2-1.3 2.8 3.5 2z" fill="url(#n)" transform="translate(125.4 69.1)"/></g></g></g><path d="M328.6 220.3l-3-1.7-.9 7.2 12.5-.6-4.2-2.4 27.9-16.3-4.3-2.6-28 16.4z" fill="#3A51C6" opacity=".6"/><g><path stroke="#CBCFDE" fill-opacity=".4" fill="#FFF" d="M674.9 186.5l-166.3 96.1-294.9-170.4 167.1-95.8z"/><path d="M381.8 72l-3-2.9-2.9 2.9h-34.1a2.5 2.5 0 0 0-2.5 2.5v9.8c0 1.4 1.1 2.5 2.5 2.5h52.7c1.4 0 2.5-1 2.5-2.5v-9.8c0-1.4-1.1-2.5-2.5-2.5h-12.7z" stroke="#555A6F" fill="#F0F1F7"/><path d="M350.3 78.1v1.5h1.4V78h-1.4zm1.4-.8v-1.5h-1.4v1.5h1.4zm-1.4 3.1c0 1.4-.3 2.5-.7 3.4l-.7-.6c.4-1 .6-2 .6-3.4V75h3v7.8c0 .7-.2 1-.8 1h-.8l-.3-.8h.8c.2 0 .3-.1.3-.5v-2h-1.4zm3.9-1V83c.5-.3 1-.6 1.3-1-.6-.8-1-1.6-1.2-2.6h-.1zm0 3.6v.8h-1v-8.9h4.3c0 1.3 0 2.2-.2 2.6-.1.4-.5.6-1.1.6h-.9l-.2-.8h1.1c.1 0 .2-.1.2-.3l.2-1.2h-2.4v2.8h3.3v.8c-.1 1-.4 1.8-.9 2.5.4.4 1 .7 1.5 1l-.5.9a8 8 0 0 1-1.5-1.2c-.4.5-.9.9-1.5 1.2l-.4-.8zm.9-3.6c.2.7.5 1.3 1 1.8l.6-1.8h-1.6zm6.6-4.9l1 .2-.3.6h4.2v.8c-.6.7-1.3 1.3-2.1 1.8 1 .4 2.2.7 3.5.8l-.4.9c-1.5-.2-3-.6-4.2-1.2-1.2.6-2.6 1-4.2 1.2l-.4-.9a16 16 0 0 0 3.6-.8c-.5-.3-1-.6-1.3-1l-1.2.8-.5-.7c1.1-.7 2-1.5 2.3-2.5zm1.7 3l1.9-1.3h-3.6c.5.5 1 .9 1.7 1.2zm-.7 1.5h1l-.1 1h3.4c0 1.8-.2 2.9-.4 3.2-.3.3-.8.5-1.5.5h-1.3l-.2-.9h1.3c.5 0 .8 0 1-.3l.2-1.6h-2.8c0 .2-.1.5-.3.7-.5.9-1.6 1.6-3.5 2.2l-.6-.7c1.6-.5 2.7-1.1 3.2-1.8l.2-.4h-2.8v-.8h3c.2-.4.2-.7.2-1zm6.8-1.2l.7-3 1 .2-.5 1.9h1.5l.4-2.4 1 .1a25 25 0 0 1-.5 2.3h4.6v.9H373l-.3 1h4v.7a5 5 0 0 1-1.5 2.2L378 83l-.5.9c-1.2-.4-2.3-1-3-1.5-.9.6-1.8 1.1-3 1.6l-.5-1c1-.3 1.9-.7 2.6-1.1-.7-.6-1.2-1.1-1.5-1.7-.7 1.5-1.6 2.6-2.7 3.5l-.5-.9a11 11 0 0 0 3-5h-2.3zm3.2 1.8c.3.6.9 1.1 1.6 1.6.6-.5 1-1 1.3-1.6h-2.9zm2.6-5c.7.4 1.2 1 1.7 1.5l-.7.7-1.7-1.6.7-.7zm12 .3v5.6h-1v-4.7h-2.7v4.7h-1V75h4.7zm-.3 8.7h-1c-.7 0-1-.3-1-1v-1.5a5 5 0 0 1-.4 1c-.5.8-1.3 1.3-2.5 1.7l-.5-.8c1.1-.4 1.9-1 2.3-1.5.3-.7.6-1.6.6-2.7v-2.4h1v2.4l-.3 1.7h.8v2c0 .2 0 .3.2.3h.6c.2 0 .2 0 .3-.2l.1-1 1 .3c-.1.8-.3 1.3-.4 1.5-.2.2-.5.2-.8.2zm-8-5.4h1.1V76h-1.2v-1h3.3v1h-1.1v2h1v1h-1v2l1.2-.5v1l-3.2 1-.3-1 1.3-.2V79h-1v-1z" fill="#000"/><path d="M5.5 51.7L47.9 49l-7.7-12c-3.4-2.3-7.4-2.4-12-.5-4.4 2-12 7-22.7 15.2z" fill="url(#a)" opacity=".2" transform="translate(361.1 17.2)"/><path d="M385.9 56.6v1l-14.6 8.3V49.7 66l-.8-.5v1l-4 2.2-3.9-2.3V47.7 47v-.2l.1-.3v-.2l.1-.3v-.2l.1-.1v-.2l.1-.1V45l.1-.2.2-.5.2-.4.1-.2.1-.1.2-.3v-.1l.3-.4v-.2l.2-.2.1-.1.1-.2h.1l.1-.2.2-.2v-.1l.2-.1.3-.4.2-.1a8.8 8.8 0 0 1 .4-.4l.1-.1.3-.2.2-.1.4-.3 6-3.4-3.1-1.8c-1.2-.7-2-2-2-4.1V30l.1-.3v-.3-.1l.2-.5v-.3l.1-.4v-.3l.1-.2.1-.2V27l.2-.2v-.3h.1l.2-.6.1-.2.2-.4v-.2l.2-.2V25l.3-.4v-.2l.4-.5v-.1l.2-.2.2-.3.1-.2.2-.2.1-.2.2-.2.3-.3V22l.2-.2.4-.4.2-.2h.1a15 15 0 0 1 .6-.6l.2-.2c.2 0 .3-.2.4-.3l.2-.1a9 9 0 0 1 1.4-.8h.2l.1-.1.5-.2H376.4l.2-.1H377.2v-.1h1.1l.2.1h.2v.1h.1a3 3 0 0 1 .4.2l4 2.3h-.1c1.2.6 1.9 2 2 4.1a12.3 12.3 0 0 1-1.4 5.4H385v.1a2.1 2.1 0 0 1 .3.1l4 2.3c.8.4 1.3 1.4 1.3 2.8v18.6l-4 2.3V41v16zm-15-14.3h.1l15-8.6-15 8.5v.1zm7.5-20.4z" stroke="#555A6F" stroke-width="2.7" fill="#F1F6FF" stroke-linecap="round" stroke-linejoin="round"/><path fill="#D5E0F3" d="M386.7 57l-4-2.2v-16l4 2.2zM371.3 65.9l-4-2.3V47.5l4 2.2z"/><path d="M26 15.2a4.3 4.3 0 0 1 .9-.3h.8l.3.2h.1l.3.1-4-2.2-.2-.2H24h-.1-.1v-.1h-.3-.1-.2-.1-.1-.5l-.2.1-.3.1H22v.1c-.3 0-.4.2-.6.3l-15 8.5-.5.3-.1.1-.3.2-.2.1a8.7 8.7 0 0 0-.4.4l-.2.2-.3.3v.1l-.1.1-.2.2-.1.2h-.1l-.1.2-.1.2-.2.2v.1l-.3.4v.1l-.2.3-.1.1v.2l-.1.1-.2.3-.2.5v.2l-.1.2v.2l-.1.1v.2l-.1.2v.2h-.1V28.7l-.1.1v19.5l4 2.2-.1-18.6V31v-.2-.3l.1-.3.1-.2a8.8 8.8 0 0 1 .3-.8V29l.2-.5a10.6 10.6 0 0 1 .5-1l.4-.6a10 10 0 0 1 .8-1l.2-.2a9.7 9.7 0 0 1 1.3-1.2l.1-.1.5-.3 15-8.6.6-.3h.1" fill="url(#b)" transform="translate(360.8 18.2)"/><path d="M19.9 15.5c2.5-1.4 4.5-.2 4.5 2.6v18.6l-3.9 2.2V23l-.8.4v16L5.2 47.8V31.6l-.8.4v16.2L.5 50.4V31.8c0-2.8 2-6.3 4.5-7.7l15-8.6z" fill="url(#c)" transform="translate(366.1 18.2)"/><path d="M11.8 13.8a10.2 10.2 0 0 1 .2-1v-.3l.1-.3.2-.5v-.2l.2-.5.1-.3.3-.7a14.8 14.8 0 0 1 .7-1.4l.1-.2.4-.6.1-.2a15.8 15.8 0 0 1 1-1.4c.2 0 .3-.2.3-.3l.5-.4.2-.3a15 15 0 0 1 .6-.5l.3-.2.4-.3.2-.1a9.5 9.5 0 0 1 1.2-.7h.1l.4-.2a6.5 6.5 0 0 1 1.3-.4H22l.4.2.5.2L19 1a3 3 0 0 0-.4-.2h-.1l-.2-.1H18 18V.5H17 17h-.2-.2-.4l-.2.1H16l-.5.2h-.1l-.2.2a6.4 6.4 0 0 0-.7.3 9 9 0 0 0-.7.4l-.2.2-.4.3-.2.1a13.2 13.2 0 0 0-.6.6l-.1.1-.1.1-.5.5-.1.1-.1.2-.3.3-.2.2v.2l-.3.2V5c-.2 0-.2.2-.3.3l-.1.1v.1a16.1 16.1 0 0 0-.4.6v.1c-.2.1-.2.3-.3.4l-.1.2-.1.2v.1l-.3.5v.1l-.3.6-.1.3-.1.3v.2l-.2.3v.4l-.2.4v.3l-.1.5v.5l-.1.2v.7c0 2 .7 3.5 1.9 4.2l3.9 2.2c-1.2-.7-1.9-2-1.9-4.1V14v-.3" fill="url(#d)" transform="translate(360.2 18.1)"/><path d="M378.5 21.8c3.6-2 6.5-.4 6.5 3.7 0 4-2.9 9-6.5 11.1-3.6 2-6.5.4-6.5-3.7 0-4 2.9-9 6.5-11" stroke="#B1B7C6" stroke-width=".5" fill="#D5E0F3"/><g><path d="M404.3 47.5c-.4 4.9-2.6 9-6.4 12.2-3.1 2.1-5.8 2.5-8.1 1.2l-2.4-2.1c-4.1-3.8-4.6-8.6-1.3-14.6 3.4-5.8 7.5-7.6 12.2-5.6l3.4 2c1.9 1.3 2.7 3.6 2.6 7z" fill="#FFFDFD"/><path d="M3.1 2.8l5-2.2c3.6-1.2 7 .6 10.4 5.5 5.3 8.2 1.2 13.6-.5 15.1a9.2 9.2 0 0 0-2 2.1c3-3.9 3-8.6-.3-14C12.1 3.8 8 1.6 3.1 2.9z" fill="url(#e)" transform="matrix(-1 0 0 1 404.8 37.3)"/><path d="M395.7 61c-4.9 2.2-8.9-.7-8.9-6.4s4-12 9-14.2c4.8-2.2 8.8.6 8.8 6.3s-4 12.1-8.9 14.3z" fill="#D5E0F3"/><path d="M395.7 61c-4.9 2.2-8.9-.7-8.9-6.4s4-12 9-14.2c4.8-2.2 8.8.6 8.8 6.3s-4 12.1-8.9 14.3z" stroke-opacity=".6" stroke="#7787C3" stroke-width=".5"/><path d="M404.3 47.5c-.4 4.9-2.6 9-6.4 12.2-3.1 2.1-5.8 2.5-8.1 1.2l-2.4-2.1c-4.1-3.8-4.6-8.6-1.3-14.6 3.4-5.8 7.5-7.6 12.2-5.6l3.4 2c1.9 1.3 2.7 3.6 2.6 7z" stroke="#555A6F" stroke-width="1.3" stroke-linejoin="round"/><path d="M11.7 15.1l-3.7 2c.3 2 1.8 2.8 3.7 2.1v-4zm1.7 3.2c.7-.5 1.3-1.1 1.8-1.8l-1.8-1v2.8zm0 1.9v3.2l-1 .4-.6.2v-3c-2.9 1.2-5 0-5.5-2.9L4 19.4l-.1-1.7 2.4-1.4c.4-3.3 2.6-7 5.4-8.9V3.8a6 6 0 0 1 1-.5l.6-.2v3.4c1.2-.5 2.2-.5 3-.3l-1.1 2c-.5-.2-1.2-.1-1.8.1v2.9l1.8-3 1.2-2 1.8-3.1.8.2.4.5-1.9 3a4 4 0 0 1 1.3 2.6L21.4 8v1.8l-2.6 1.4c-.2 1.4-.6 2.7-1.3 4l2.4 1.3s-.3.7-1.2 2L16.4 17c-.9 1.2-1.9 2.3-3 3zM8 15.4l3.7-2v1.5-5.6A10 10 0 0 0 8 15.3zm9.1-3.2l1.6-1-1.6 1-2.6 1.4 1.9 1c.3-.8.6-1.6.7-2.4zm.2-5l-1 1.6-1.8 3 2.6-1.4a3 3 0 0 0-.7-1.6l.9-1.6zM12 14.7l.6-1 .3.3-.3-.2-.6 1zm1.7-1.6l.2-.2-.2.2-.6 1 .6-1 .3.2-.3-.2z" fill="url(#o)" fill-rule="nonzero" transform="translate(383 37.3)"/></g><g><path d="M446.4 121.1l-3-2.9-2.9 2.9h-22.3a2.5 2.5 0 0 0-2.5 2.5v9.9c0 1.4 1.1 2.5 2.5 2.5H470c1.4 0 2.5-1.1 2.5-2.5v-9.9c0-1.4-1-2.5-2.5-2.5h-23.6z" stroke="#555A6F" fill="#F0F1F7"/><path d="M432.4 126.2v4.7h-.9V127h-4.7v3.9h-.9v-4.2l-.7.5-.6-.7a9.3 9.3 0 0 0 3-2.9l.9.2-.4.6h3.2v.7l-1 1h2.1zm-3.1 0l.8-.9h-2.7l-.8 1h2.7zm.5 4.3c1.3.5 2.5 1 3.6 1.7l-.6.8a16 16 0 0 0-3.5-1.8l.5-.7zm-1.1-3h.9v1.4c0 1.1-.4 2-1 2.6-.7.7-1.8 1.1-3.2 1.4l-.5-.8c1.4-.3 2.4-.7 3-1.2a3 3 0 0 0 .8-2v-1.4zm6.3-3h1.9v-.8h1v.7h1.7v.9h-1.8v.7h2.2v-2.3h.9v2.3h2.5v.9H441l.2 2 .1.5c.3-.6.6-1.4.7-2.2l.9.4a12 12 0 0 1-1.2 3.1l.2.4c.2.5.4.7.5.7.1 0 .3-.5.4-1.4l.8.4c-.3 1.3-.6 2-1 2s-.8-.3-1.2-.9l-.2-.4c-.5.6-1.1 1-1.7 1.4l-.5-.7a5 5 0 0 0 1.7-1.7l-.3-1.4a15 15 0 0 1-.3-2.2h-5.6v-.9h2.4v-.7H435v-.9zm6.9-.7l1.1 1.4-.7.5c-.2-.4-.6-1-1.1-1.5l.7-.4zm-2.3 7v.8l-1.5.2v1.1h-1v-1c-.6 0-1.4 0-2.1.2l-.1-1h2.2v-.8h-1.8l-.2-.8.7-1h-1v-.9h1.4l.2-.6.9.1-.2.5h2.5v.9h-2.8a9 9 0 0 1-.6 1h1v-.7h.9v.7h1.4v.8h-1.4v.6l1.5-.1zm11.8-1.9l.3 1-3.2 1.6-.4-1c1.3-.4 2.4-1 3.3-1.6zm-1.9-2l1.7 1.4-.7.6-1.6-1.4.6-.6zm-.4-3.3l1 .1-.4 1.4h3.6c0 3.6-.1 5.7-.2 6.5-.1.9-.6 1.3-1.4 1.3h-1.5l-.3-1h1.6c.4 0 .6-.2.7-.7l.1-5.1h-3c-.3.7-.7 1.3-1.2 1.9l-.7-.8c.9-1 1.4-2.2 1.7-3.6zm-4.7 2.7h1v-2.6h1v2.6h1v.9h-1v3c.4 0 .8-.2 1.3-.4v1l-3.2 1-.2-1 1.1-.3v-3.3h-1v-1zm12.6-.1l-.4-.6c.6-.5 1.2-1.2 1.7-2l.9.2-.3.5h1.5v.6a8 8 0 0 1-.6.8h1v3.7h-1.5v.6h1.9v.9h-2l1.7 1.1-.5.8c-.5-.5-1-1-1.6-1.2-.3.5-.8 1-1.6 1.4l-.5-.7c.8-.4 1.3-.9 1.5-1.4h-1.4v-.9h1.6v-.6H457v-3.2zm1.9-.5l.5-.6h-1l-.7.6h1.2zm1.1 3v-.8h-.7v.8h.7zm-1.4 0v-.8h-.8v.8h.8zm-.8-1.5h.8v-.8h-.8v.8zm1.5-.8v.8h.7v-.8h-.7zm-3.3-2.7l.8.4c-.4 1-1.2 2-2.2 2.9l-.3-1c.8-.6 1.3-1.4 1.7-2.3zm.1 2.6l.8.4c-.1.5-.4 1-.7 1.3v5h-.9V129l-.7.7-.3-.9a7 7 0 0 0 1.8-2.6zm6 6.6h-.8l-.2-.9h.6c.2 0 .3 0 .3-.2v-4h-1v-1h2.6v1h-.7v4.2c0 .6-.3.9-.9.9zm-1-8.6h2.3v.9h-2.2v-.9z" fill="#000"/><g><path fill="url(#p)" opacity=".2" d="M30 44.6h29.1V17H30z" transform="translate(427.6 73.7)"/><path d="M45.4 11.8L45 13l-.1.2-.8 1.1-.4.4c-.2.4-.6.7-1 1v16.6l.6-.4.4-.5.4-.4.1-.2.7-1v-.1l.4-.8v-.4l.2-.2v-.3l.1-.9V10.3l-.1 1.2-.1.3z" fill="url(#q)" transform="translate(427.6 73.7)"/><path d="M44.6 23l-.1.2-1 1.2-1 .6-.7.6a14 14 0 0 1-3.5 1.4 18.4 18.4 0 0 1-2.8.6h-.4c-.7.2-1.4.2-2.1.2h-.4l-2-.1h-.4l-2-.4-.4-.1a17 17 0 0 1-1.8-.6h-.3a14 14 0 0 1-1.9-1L4 14C1.5 12.4.2 10.5.2 8.6v16.6c0 2 1.3 3.9 3.8 5.3l19.8 11.7 1.8 1h.4l1.2.5.6.1.4.1h.3l1.2.3h.5l.3.1h.5l1.2.1H35l.1-.1h.4l1-.2.5-.1 1.3-.4.7-.1.3-.2a14.1 14.1 0 0 0 2.6-1.2l.7-.4.8-.7 1-1v-.2l.2-.2.2-.3.4-.8v-.2l.2-.5v-.7-16.8c0 .5 0 1-.2 1.4v.1l-.6 1.2z" fill="url(#r)" transform="translate(427.6 73.7)"/><path d="M42.7 15.6c4 3 3.7 7.3-1 10-4.9 3-13 3-17.9 0L4 14c-5-3-5-7.7 0-10.6C8.4.6 15.7.3 20.7 2.7a24.3 24.3 0 0 1 20.2 1c5.5 3.2 6.1 8.3 1.7 12" fill="url(#s)" transform="translate(427.6 73.7)"/><path d="M458 74.6c3.8 0 7.6 1 10.6 2.7 5.5 3.3 6 8.4 1.7 12 4 3 3.6 7.2-1 10-4.9 2.9-13 2.9-18 0l-19.7-11.7c-2.5-1.4-3.7-3.3-3.8-5.2" stroke="#555A6F" stroke-width=".5"/><path d="M473 102.9c0 1.8-1.3 3.7-3.6 5.1-5 3-13 3-18 0l-19.8-11.7c-2.5-1.4-3.7-3.3-3.8-5.1" stroke="#A3B1D9" stroke-width=".5" opacity=".4"/><path d="M473.3 98V83.9" stroke="#A3B1D9" stroke-width=".9"/><path d="M428.5 92.2v5.5c0 1.8-.5 3.7 3.4 6.4l20.1 12.2c7 3.6 14.4 1.2 15.5.6 1-.6 5.2-2.3 5.2-6.4V102v-5c.5.2 0-8.4 0-13.5 0-5-9.8-8.3-13.7-8.6-4-.3-7 0-10.3 1.4-1.2-.5-6.8-2.7-12.6-1-5.9 1.7-7.6 5-7.6 6.7v10.3z" stroke="#555A6F" stroke-width="1.3" stroke-linejoin="round"/><path fill="#A5ADC1" d="M431 89.5l1.9 1.3V94l-2-1.3z"/><path fill="#A5ADC1" opacity=".5" d="M434.1 91.4l1.9 1.3v3l-1.9-1.2z"/><path d="M15.4 12.4l-.3-.1 3.5-9.7c.3 0 .8-.2 1.1-.4.7-.5.8-1.4.1-1.9-.6-.5-1.7-.4-2.5.2-.3.2-.5.6-.5.8L2.9 3l-.2-.2c-.5-.4-1.4-.4-2 .1-.7.5-.8 1.2-.3 1.6l.5.2L2.8 10c-.7.5-.8 1.3-.2 1.8.6.5 1.7.4 2.5 0l7.7 1.9.4.3c.5.4 1.5.3 2.1-.1.6-.5.7-1.2 0-1.6zm-2.1.2c-.2 0-.2.2-.4.3l-7.2-2v-.7l12-7.7h.3l-3.5 9.7a2 2 0 0 0-1.2.4zm3.5-10.8l.1.2L5 9.6h-1L2 4.6l.4-.3c.3-.2.5-.6.5-.9l13.8-1.6zM1 3.2c.4-.3 1-.3 1.2 0 .3.2.3.6 0 .9-.4.2-1 .3-1.3 0-.3-.2-.3-.6.1-.9zm2 8.3c-.4-.3-.3-.8.2-1.2.5-.4 1.3-.4 1.7 0 .4.2.4.8-.1 1.2-.6.3-1.3.4-1.7 0zm10.6 2.3c-.4-.3-.3-.7 0-1 .4-.3 1-.3 1.3 0 .3.2.3.6 0 .9-.4.3-1 .3-1.3 0z" transform="translate(443.3 79.7)" fill="url(#t)" fill-rule="nonzero"/></g></g><g><path d="M522 163l-3-2.9-3 2.9h-22.3a2.5 2.5 0 0 0-2.4 2.5v9.8c0 1.4 1 2.5 2.4 2.5h51.9c1.3 0 2.4-1 2.4-2.5v-9.8c0-1.4-1-2.5-2.4-2.5H522z" stroke="#555A6F" fill="#F0F1F7"/><path d="M501.4 169.1v1.5h1.4V169h-1.4zm1.4-.8v-1.5h-1.4v1.5h1.4zm-1.4 3.1c-.1 1.4-.3 2.5-.8 3.4l-.7-.6c.4-1 .6-2 .6-3.4V166h3.1v7.8c0 .7-.3 1-.9 1h-.8l-.2-.8h.8c.2 0 .3-.1.3-.5v-2h-1.4zm3.8-1v3.6c.5-.3 1-.6 1.3-1-.5-.8-1-1.6-1.2-2.6zm0 3.6v.8h-.9v-8.9h4.2l-.1 2.6c-.2.4-.5.6-1.2.6h-.8l-.3-.8h1.2l.2-.3.1-1.2h-2.4v2.8h3.4v.8c-.2 1-.5 1.8-.9 2.5l1.4 1-.4.9a8 8 0 0 1-1.5-1.2c-.4.5-1 .9-1.5 1.2l-.5-.8zm1-3.6c.2.7.5 1.3.9 1.8l.7-1.8h-1.6zm6.6-4.9l1 .2-.4.6h4.3v.8c-.6.7-1.3 1.3-2.2 1.8 1.1.4 2.3.7 3.6.8l-.4.9c-1.6-.2-3-.6-4.2-1.2-1.2.6-2.6 1-4.2 1.2l-.4-.9a16 16 0 0 0 3.5-.8l-1.3-1-1.1.8-.6-.7c1.2-.7 2-1.5 2.4-2.5zm1.7 3c.7-.4 1.3-.8 1.8-1.3h-3.5c.5.5 1 .9 1.7 1.2zm-.7 1.5h.9v1h3.4c0 1.8-.2 2.9-.5 3.2-.3.3-.8.5-1.5.5H515l-.2-.9h1.2c.5 0 .8 0 1-.3.1-.2.2-.7.2-1.6h-2.7l-.3.7c-.5.9-1.7 1.6-3.5 2.2l-.7-.7c1.7-.5 2.7-1.1 3.2-1.8l.3-.4h-2.8v-.8h3l.2-1zm6.4-4.1h3.3v.7l-1 2.8a5 5 0 0 1 1 2.4c0 .4-.2.8-.4 1-.3.2-.8.3-1.5.4l-.3-1h1l.2-.4c0-.7-.4-1.5-1-2.3l1-2.7h-1.3v8h-1v-9zm4.5 2.7v.9h2.7v-1h-2.7zm2.7-.9v-1h-2.7v1h2.7zm-1.7 2.7h-1v3c.6 0 1.1-.3 1.6-.5l.3.8c-.8.4-1.7.7-2.8 1l-.2-.9c.1 0 .2-.1.2-.3V166h4.5v4.5h-1.8c.1.5.3 1 .6 1.4a5 5 0 0 0 1.2-1.1l.6.6c-.4.5-.9.9-1.4 1.1.4.6 1 1 1.7 1.5l-.6.8a6.3 6.3 0 0 1-3-4.3zm7.2-.5l-.2-.8.2-.1c.3-.2.8-.8 1.3-1.7h-1.6v-.8h2.7l-.4-1h1l.4 1h2.5v.8h-3.6l-1 1.7 3-.3-.7-.8.8-.4a16 16 0 0 1 1.6 2.1l-.8.6-.4-.7-4.8.4zm-2-4.3l1.5 1.3-.6.7-1.6-1.3.7-.7zm-.2 2.4l1.5 1.5-.7.7c-.3-.5-.8-1-1.5-1.5l.7-.7zm.8 2.7l.8.4-1.3 3.6-.8-.4a34 34 0 0 0 1.3-3.6zm3.4-.5h1v4.4h-1v-4.4zm-1.7 0h1c-.1 1.3-.2 2.3-.4 3a4 4 0 0 1-1.3 1.6l-.6-.8c.5-.4.8-.8 1-1.3a9 9 0 0 0 .3-2.5zm5 4.5h-.5c-.7 0-1-.3-1-.9v-3.6h.9v3.4l.1.2h.4c.1 0 .2-.1.2-.4v-1l.9.2c0 1 0 1.5-.2 1.8-.2.2-.4.3-.9.3z" fill="#000"/><g><path fill="url(#g)" opacity=".2" d="M23.7 45l48.9.7-23-18.4z" transform="translate(505 114.6)"/><path d="M47.3 12.2c2.3 1.3 2.3 3.4 0 4.7L28.9 27.6a9.3 9.3 0 0 1-8.4 0L1.7 16.9c-2.3-1.3-2.3-3.4 0-4.7L20.3 1.5c2.3-1.3 6-1.3 8.3 0l18.7 10.7z" fill="url(#u)" transform="translate(505 114.6)"/><path d="M48.7 15.3v.1a3 3 0 0 1-.6.5l-.4.3-.3.3-18.6 10.7a6.6 6.6 0 0 1-1.6.6 8.3 8.3 0 0 1-1.3.3h-1.2-.1a11 11 0 0 1-2.1-.2h-.2l-.8-.3h-.1l-1-.4L1.9 16.5C.6 15.8 0 15 0 14.1v17.2c0 .9.6 1.7 1.7 2.4l18.7 10.6.9.4.2.1.5.2h.3l.2.1h.1l.6.1h.4l.2.1H25.9l.5-.1h.2l.6-.2.3-.1h.1l1.2-.6 18.6-10.6.3-.3c.2 0 .3-.2.4-.3l.4-.4.2-.2v-.1l.2-.4.1-.3v-.3a28868.1 28868.1 0 0 0 0-16.7l-.3.6z" fill="url(#v)" transform="translate(505 114.6)"/><path d="M554.4 128.8c0 .9-1 2-2.1 2.7l-18.6 10.7a9.3 9.3 0 0 1-8.3 0l-18.7-10.6c-1.3-.7-1.2-1.7-1.1-2.6" stroke="#A3B1D9" stroke-width=".5" stroke-linecap="round"/><path d="M554.5 137.2c0 1-1 1.9-2.2 2.6l-18.6 10.6a9.3 9.3 0 0 1-8.3 0l-18.7-10.6c-1.3-.7-1.3-2-1.3-2.8" stroke="#A3B1D9" stroke-width=".5" opacity=".4" stroke-linecap="round"/><g fill="#A4B8EB"><path d="M549 144.7l-1.7 1v2.7l1.7-1z"/><path opacity=".5" d="M546.2 146.3l-1.7 1v2.7l1.7-1z"/><path d="M551.8 143l-1.7 1v2.7l1.7-1z"/></g><path d="M511.4 150.2l13.4 7.5a9.4 9.4 0 0 0 9.8.3l17.6-10c1.8-1.3 1.9-1.8 1.9-2.7v-16.6c0-1-3-2.6-4.8-3.6-1.9-1-15-8.3-16-9a9 9 0 0 0-6.8 0c-1.5.8-19.2 10.8-19.8 11.3-.7.5-.9 1.4-.9 1.8V144c0 2.6 2.7 4.8 5.6 6.3z" stroke="#555A6F" stroke-width="1.3" stroke-linejoin="round"/><path d="M28.2 13l1.9 1-1.3.8-1.9-1-2 1-1.2-.6 2-1.2 1.2-.7 2.3-1.3 1.3.7-2.3 1.3zm-4.6-1.2l1.2-.7 2.1 1.2-1.2.7-2.1-1.2zm.8 5.5L23 18 18 15.1l1.2-.7 5.3 3zM9 15.2l17-9.7L40 13.3 23 23 9.2 15.2zm2.3 0l11.7 6.5 14.6-8.4L26 6.8l-14.6 8.4z" fill="url(#w)" fill-rule="nonzero" transform="translate(505 114.6)"/></g></g><g><path d="M596.6 205.7l-3-2.8-3 2.8h-22.2a2.5 2.5 0 0 0-2.5 2.5v10c0 1.3 1.1 2.4 2.5 2.4h51.8c1.4 0 2.5-1.1 2.5-2.5v-9.9c0-1.4-1.1-2.5-2.5-2.5h-23.6z" stroke="#555A6F" fill="#F0F1F7"/><path d="M576 211.9v1.4h1.4V212H576zm1.4-.9v-1.5H576v1.5h1.4zm-1.4 3.2c0 1.4-.3 2.5-.7 3.4l-.8-.7c.4-.8.6-2 .7-3.3v-5h3v8c0 .6-.2 1-.9 1h-.8l-.2-1 .8.1c.2 0 .3-.1.3-.5v-2H576zm3.8-1v3.6c.6-.3 1-.7 1.4-1-.6-.8-1-1.7-1.2-2.6h-.2zm0 3.6v.8h-.9v-9h4.3c0 1.4-.1 2.2-.2 2.7-.1.4-.5.6-1.2.6h-.8l-.3-.8h1.2l.2-.3.1-1.3h-2.4v2.9h3.4v.8c-.2 1-.5 1.8-.9 2.5l1.4 1-.4.8a8 8 0 0 1-1.5-1c-.4.4-1 .8-1.5 1l-.5-.7zm1-3.6c.2.7.5 1.2.9 1.8l.7-1.8h-1.6zm6.6-5l1 .2-.4.7h4.3v.8c-.6.7-1.3 1.3-2.2 1.8 1.1.4 2.3.6 3.6.8l-.4.8c-1.6-.1-3-.5-4.2-1.1-1.2.5-2.6 1-4.2 1.2l-.4-1a16 16 0 0 0 3.6-.8c-.5-.2-1-.6-1.4-1l-1 .9-.7-.8c1.2-.6 2-1.4 2.4-2.4zm1.7 3c.7-.3 1.3-.7 1.8-1.2h-3.5c.5.5 1 .9 1.7 1.2zm-.7 1.6h1l-.2 1h3.5c0 1.8-.2 2.8-.5 3.2-.2.3-.7.5-1.4.5h-1.3l-.2-1 1.2.1c.5 0 .9 0 1-.3.1-.2.2-.7.2-1.6H589l-.3.7c-.5.9-1.7 1.6-3.5 2.2l-.6-.8c1.6-.5 2.7-1 3.2-1.7l.2-.4h-2.8v-.9h3l.2-1zm9.6 3.2l.5-1.8.9.2-.3.8h1.4v-1.3h-2.3v-.8h2.3v-.7h.9v.7h1.7v.8h-1.7v1.3h2v.8h-2v1.6h-1V216H598zm-3.2-7.3h3.1v.7a53 53 0 0 1-1 2.7c.6 1 1 1.7 1 2.4 0 .5-.1.8-.3 1-.3.3-.8.4-1.5.4l-.3-1 .6.1.5-.1v-.4c0-.6-.2-1.4-.9-2.2l1-2.7h-1.3v8h-.9v-9zm4.8-.4l.9.2-.3.6h2.8v.7a4 4 0 0 1-1.4 1.6l2.1.5-.3.9c-1-.2-2-.5-2.7-.9-.7.4-1.6.7-2.6 1l-.5-.9c.9-.1 1.6-.3 2.2-.6l-.8-.8-.7.6-.6-.7c.7-.5 1.4-1.3 1.9-2.2zm1.1 2.7a4 4 0 0 0 1.3-1.1h-2.4c.2.4.6.8 1.1 1zm6.9 4.3v1l-3 .8-.1-1c1.2-.2 2.2-.5 3-.8zm-1.3-7l.9.4c-.5 1.1-1 2-1.6 2.8l1.2-.1.6-1 .8.2c-.8 1.5-1.6 2.6-2.2 3.3l2-.5v.9l-3.1.6-.3-.8c.2 0 .3-.2.5-.3l1.2-1.6-1.5.2-.3-.9c.2 0 .3-.1.4-.3.5-.9 1-1.8 1.4-3zm2.7 1.3h-1v-1h4.6v.7a43 43 0 0 1-.5 2.1h1.3v.6a8 8 0 0 1-1.3 3.4c.5.5 1 1 1.7 1.4l-.6.8-1.7-1.5a7 7 0 0 1-2.1 1.5l-.6-.9c.8-.4 1.5-.8 2-1.4a9 9 0 0 1-1.1-2.3 9 9 0 0 1-2 4.5l-.6-.6c1.2-1.4 1.9-3.7 1.9-7v-.3zm2.4 5c.5-.7.8-1.5 1-2.3h-1.3l.5-2.7H610v1.6c.2 1.3.7 2.4 1.5 3.4z" fill="#000"/><g><path fill="url(#g)" opacity=".2" d="M23.7 45l48.9.7-23-18.4z" transform="translate(579.5 157.4)"/><path d="M47.3 12.2c2.3 1.3 2.3 3.4 0 4.7L28.9 27.6a9.3 9.3 0 0 1-8.4 0L1.7 16.9c-2.3-1.3-2.3-3.4 0-4.7L20.3 1.5c2.3-1.3 6-1.3 8.3 0l18.7 10.7z" fill="url(#u)" transform="translate(579.5 157.4)"/><path d="M48.7 15.3v.1a3 3 0 0 1-.6.5l-.4.3-.3.3-18.6 10.7a6.6 6.6 0 0 1-1.6.6 8.3 8.3 0 0 1-1.3.3h-1.2-.1a11 11 0 0 1-2.1-.2h-.2l-.8-.3h-.1l-1-.4L1.9 16.5C.6 15.8 0 15 0 14.1v17.2c0 .9.6 1.7 1.7 2.4l18.7 10.6.9.4.2.1.5.2h.3l.2.1h.1l.6.1h.4l.2.1H25.9l.5-.1h.2l.6-.2.3-.1h.1l1.2-.6 18.6-10.6.3-.3c.2 0 .3-.2.4-.3l.4-.4.2-.2v-.1l.2-.4.1-.3v-.3a28868.1 28868.1 0 0 0 0-16.7l-.3.6z" fill="url(#v)" transform="translate(579.5 157.4)"/><path d="M629 171.5c0 1-1 2.1-2.1 2.8L608.3 185a9.3 9.3 0 0 1-8.3 0l-18.7-10.7c-1.2-.7-1.2-1.6-1.1-2.5" stroke="#A3B1D9" stroke-width=".5" stroke-linecap="round"/><path d="M629 180c.1 1-1 1.8-2.1 2.5l-18.6 10.7a9.3 9.3 0 0 1-8.3 0l-18.7-10.7c-1.2-.7-1.3-1.8-1.2-2.8" stroke="#A3B1D9" stroke-width=".5" opacity=".4" stroke-linecap="round"/><g fill="#A4B8EB"><path d="M623.6 187.5l-1.7 1v2.6l1.7-1z"/><path opacity=".5" d="M620.8 189.1l-1.7 1v2.7l1.7-1z"/><path d="M626.4 185.8l-1.7 1v2.7l1.7-1z"/></g><path d="M586 193c.4.1 12.7 7 13.5 7.4a9.4 9.4 0 0 0 9.7.4l17.6-10c1.9-1.3 1.9-1.8 1.9-2.8v-16.5c0-1-3-2.6-4.8-3.6l-16-9a9 9 0 0 0-6.8 0l-19.8 11.3c-.7.4-.8 1.4-.8 1.8v14.7c0 2.6 2.6 4.8 5.5 6.2z" stroke="#555A6F" stroke-width="1.3" stroke-linejoin="round"/><path d="M18.5 17v.8h9.1v1.3H16.4l.2-6h2l-.1 3.8 12.8-7.8 1.5.9-13 7.8h-1.4V17z" fill="url(#x)" fill-rule="nonzero" transform="translate(579.5 157.4)"/></g></g><g><path d="M279.9 131.1l-3-2.8-2.9 2.8h-22.3a2.5 2.5 0 0 0-2.5 2.5v9.9c0 1.4 1.1 2.5 2.5 2.5h51.8c1.4 0 2.5-1.1 2.5-2.5v-9.9c0-1.4-1.1-2.5-2.5-2.5H280z" stroke="#555A6F" fill="#F0F1F7"/><path d="M259.3 137.3v1.4h1.4v-1.4h-1.4zm1.4-.9v-1.5h-1.4v1.5h1.4zm-1.4 3.2c0 1.3-.3 2.5-.7 3.4l-.7-.7c.4-.9.6-2 .6-3.3v-5h3v7.9c0 .7-.2 1-.8 1h-.8l-.3-.8h.8c.2 0 .3-.2.3-.5v-2h-1.4zm3.9-1v3.6c.5-.3 1-.7 1.3-1.1-.6-.7-1-1.6-1.2-2.5h-.1zm0 3.6v.8h-1v-9h4.3c0 1.4 0 2.2-.2 2.7-.1.4-.5.6-1.1.6h-.9l-.2-.8h1.1l.2-.3.2-1.3h-2.4v2.8h3.3v.8c-.1 1-.4 1.9-.9 2.6l1.5 1-.5.8a8 8 0 0 1-1.5-1.1c-.4.5-.9.8-1.5 1.1l-.4-.7zm.9-3.6c.2.6.5 1.2 1 1.8l.6-1.8h-1.6zm6.6-5l1 .2-.3.7h4.2v.8c-.6.6-1.3 1.2-2.1 1.7 1 .4 2.2.7 3.5.8l-.4 1c-1.5-.3-3-.6-4.2-1.2-1.2.5-2.6 1-4.2 1.1l-.4-.8a16 16 0 0 0 3.6-.9c-.5-.3-1-.6-1.3-1l-1.2.9-.5-.8c1.1-.6 2-1.5 2.3-2.4zm1.7 3l1.9-1.2h-3.6c.5.5 1 .9 1.7 1.2zm-.7 1.6h1l-.1 1h3.4c0 1.8-.2 2.8-.4 3.2-.3.3-.8.5-1.5.5h-1.3l-.2-1 1.3.1c.5 0 .8-.1 1-.3l.2-1.6h-2.8l-.3.6c-.5 1-1.6 1.7-3.5 2.3l-.6-.8c1.6-.5 2.7-1 3.2-1.8l.2-.3h-2.8v-.9h3c.2-.3.2-.7.2-1zm11-4.5l.3.8h3.6v1.9h-.9v-1h-6.6v1h-.9v-2h3.8a6 6 0 0 0-.4-.6l1-.1zm-.6 3.2h.7c.8 1 2.2 1.8 4.2 2.5l-.5.8-1-.4v3.2h-.9v-.4h-4.2v.4h-1v-3.2l-1 .4-.5-.8c1.8-.6 3.2-1.5 4.2-2.5zm-1.7 4.8h4.2v-1.4h-4.2v1.4zm-.4-2.2h4.9c-1-.5-1.9-1.2-2.5-1.8-.7.7-1.5 1.3-2.4 1.8zm3.7-3.9c1.2.6 2.2 1.3 3 1.9l-.6.6a18 18 0 0 0-3-1.9l.6-.6zm-2.5 0l.6.6c-.9.7-2 1.4-3.2 2l-.5-.8c1.2-.5 2.2-1.1 3-1.8zm10.6-.9h1v-1h.9v1h1.2v-1h1v1h1v.9h-1v1h1.2v1h-5.6v-1h1.3v-1h-1v-.9zm1.9 2h1.2v-1.1h-1.2v1zm2.8 1.5v4.8h-1v-.5h-2.4v.5h-1v-4.8h4.4zm-3.4 3.5h2.5v-1H293v1zm0-1.8h2.5v-.9H293v.9zm-4-6.2l.9.2-.3.9h1.8v.9h-2l-.6 1h2.4v1h-1v1h1.3v.8h-1.3v2.1l1.3-.6.2.8-2.4 1-.4-.9c.3 0 .4-.2.4-.4v-2H288v-.8h1.3v-1h-.5v-.9l-.4.7-.8-.5c.6-1 1-2.1 1.4-3.3z" fill="#000"/><g><path fill="url(#g)" opacity=".2" d="M23.7 45l48.9.7-23-18.4z" transform="translate(262.9 82.8)"/><path d="M47.3 12.2c2.3 1.3 2.3 3.4 0 4.7L28.9 27.6a9.3 9.3 0 0 1-8.4 0L1.7 16.9c-2.3-1.3-2.3-3.4 0-4.7L20.3 1.5c2.3-1.3 6-1.3 8.3 0l18.7 10.7z" fill="url(#u)" transform="translate(262.9 82.8)"/><path d="M48.7 15.3v.1a3 3 0 0 1-.6.5l-.4.3-.3.3-18.6 10.7a6.6 6.6 0 0 1-1.6.6 8.3 8.3 0 0 1-1.3.3h-1.2-.1a11 11 0 0 1-2.1-.2h-.2l-.8-.3h-.1l-1-.4L1.9 16.5C.6 15.8 0 15 0 14.1v17.2c0 .9.6 1.7 1.7 2.4l18.7 10.6.9.4.2.1.5.2h.3l.2.1h.1l.6.1h.4l.2.1H25.9l.5-.1h.2l.6-.2.3-.1h.1l1.2-.6 18.6-10.6.3-.3c.2 0 .3-.2.4-.3l.4-.4.2-.2v-.1l.2-.4.1-.3v-.3a28868.1 28868.1 0 0 0 0-16.7l-.3.6z" fill="url(#v)" transform="translate(262.9 82.8)"/><path d="M312.3 97c0 .8-1 2-2 2.7l-18.7 10.7a9.3 9.3 0 0 1-8.3 0l-18.7-10.7c-1.2-.7-1.2-1.6-1.1-2.5" stroke="#A3B1D9" stroke-width=".5" stroke-linecap="round"/><path d="M312.4 105.4c0 .9-1 1.8-2.2 2.5l-18.6 10.7a9.3 9.3 0 0 1-8.3 0l-18.7-10.7c-1.2-.7-1.3-1.9-1.2-2.8" stroke="#A3B1D9" stroke-width=".5" opacity=".4" stroke-linecap="round"/><g fill="#A4B8EB"><path d="M307 112.8l-1.8 1v2.7l1.7-1z"/><path opacity=".5" d="M304.1 114.5l-1.6 1v2.7l1.6-1z"/><path d="M309.7 111.2l-1.7 1v2.7l1.7-1z"/></g><path d="M269.4 118.3l13.4 7.5a9.4 9.4 0 0 0 9.7.3l17.7-10c1.8-1.2 1.8-1.7 1.8-2.7V96.9c0-1.1-3-2.6-4.8-3.6l-16-9a9 9 0 0 0-6.7 0l-19.9 11.3c-.6.4-.8 1.3-.8 1.8V112c0 2.6 2.7 4.8 5.6 6.2z" stroke="#555A6F" stroke-width="1.3" stroke-linejoin="round"/><path d="M26.6 9.2c.3.2.4.5 0 .8-.4.2-1 .2-1.3 0l-2.4-1.4c-.6-.3-1.6-.3-2.2 0l-6.5 3.7c-.6.4-.6 1 0 1.3l2.3 1.4c.4.2.4.5 0 .7-.3.2-1 .2-1.3 0L13 14.4c-1.4-.8-1.4-2 0-2.8l6.4-3.7c1.4-.8 3.6-.8 5 0l2.3 1.3zm9.7 5.5c1.3.8 1.4 2 0 2.8l-6.5 3.8c-1.3.7-3.5.7-4.9 0l-2.3-1.4c-.4-.2-.4-.5 0-.7.3-.2 1-.2 1.3 0l2.3 1.3c.7.4 1.7.4 2.3 0l6.5-3.7c.6-.4.6-1 0-1.3l-2.4-1.3c-.4-.3-.4-.6 0-.8.4-.2 1-.2 1.3 0l2.4 1.3zm-4.8.3c.2.1.3.3.3.4 0 .3-.5.6-1 .5l-11.3-.4.7-3.5c.1-.3.6-.5 1-.5.3 0 .5 0 .6.2.2 0 .3.2.3.4l-.5 2.4 9.3.4.6.1z" fill="url(#y)" fill-rule="nonzero" transform="translate(262.9 82.8)"/></g></g><g><path d="M354.5 173.9l-3-2.9-2.9 2.9h-22.3a2.5 2.5 0 0 0-2.5 2.5v9.9c0 1.3 1.1 2.5 2.5 2.5h51.8c1.4 0 2.5-1.2 2.5-2.5v-10c0-1.3-1.1-2.4-2.5-2.4h-23.6z" stroke="#555A6F" fill="#F0F1F7"/><path d="M334 180v1.5h1.3V180H334zm1.3-.8v-1.5H334v1.5h1.4zm-1.4 3.1c0 1.4-.3 2.5-.7 3.4l-.7-.6c.4-.9.6-2 .6-3.4v-4.9h3.1v7.9c0 .6-.3 1-1 1h-.7l-.2-.9h.7c.2 0 .3 0 .3-.4v-2H334zm3.9-1v3.6c.5-.3 1-.6 1.3-1-.6-.8-1-1.6-1.2-2.5h-.1zm0 3.7v.7h-1v-8.9h4.3c0 1.3 0 2.2-.2 2.6-.1.4-.5.7-1.1.7h-.9l-.2-.8h1.1l.3-.3v-1.3h-2.3v2.8h3.4v.8c-.2 1-.5 1.8-1 2.5.5.4 1 .8 1.5 1l-.5.9a8 8 0 0 1-1.5-1.1l-1.4 1.1-.5-.7zm1-3.6c.1.6.4 1.2.8 1.7.3-.5.6-1 .7-1.7h-1.6zm6.5-5l1 .2-.3.7h4.3v.7c-.6.7-1.4 1.3-2.2 1.8 1 .4 2.2.7 3.6.8l-.5.9c-1.5-.2-3-.6-4.2-1.2-1.2.6-2.6 1-4.1 1.2l-.5-.9a16 16 0 0 0 3.6-.8c-.5-.3-1-.6-1.3-1l-1.1.9-.6-.8c1.1-.7 2-1.5 2.3-2.5zm1.7 3l1.9-1.3h-3.5l-.1.1 1.7 1.1zm-.7 1.6h1l-.1 1h3.4c0 1.7-.1 2.8-.4 3.1-.3.4-.8.5-1.5.5h-1.2l-.3-.9h1.3c.5 0 .8 0 1-.2l.2-1.7H347l-.3.7c-.5 1-1.7 1.7-3.6 2.2l-.6-.7c1.6-.5 2.7-1 3.2-1.8l.2-.4h-2.8v-.8h3.1l.1-1zm6.4-2.6l.8.1-.3 3-.8-.3c.2-.9.3-1.8.3-2.8zm1.1-1.9h1v2.2l.6-1 .5.7v-1h2.2c0-.3-.2-.6-.4-.8l1-.2.4 1h2.2v1.8h-.9v-1h-3.6v1h-1v-.6l-1 1v.7l-.2 1.7 1.5 1.8-.6.8-1-1.7a6 6 0 0 1-1.4 2.9l-.7-.7c1-1 1.4-2.6 1.4-4.8v-3.8zm4.5 3.5h.5c.9.9 1.9 1.6 3 2.2l-.6.8-.4-.3v3h-1v-.3h-2.5v.3h-.9v-3l-.5.3-.5-.8c1-.6 2-1.3 3-2.2zm-1 4.5h2.6v-1.4h-2.6v1.4zm-.4-2.2l1.7-1.5 1.6 1.5H357zm2.5-3.7c.8.5 1.5 1.1 2 1.6l-.6.7a12 12 0 0 0-2-1.7l.6-.6zm-1.8 0l.6.6c-.5.6-1.1 1.2-1.9 1.6l-.6-.7c.8-.4 1.4-.9 2-1.4zm5.1-1.7h.8v7.3h3.3v.8h-4v-8zm1.2 2.7h1.3v-3.1h1v3h1.2v1H366v.1l1.4 1.4-.5.7-.9-1.3v2.4h-.9v-2.3c-.3.6-.7 1.1-1.2 1.6l-.4-.9c.7-.5 1.2-1.1 1.6-1.8h-1.3v-.8zm2.8-2.5h.7c0 .8-.1 1.5-.4 2l-.7-.2.4-1.8zm-2.2 0l.5 2-.7.1-.5-1.8.7-.2zm4.2 3.3v.7c0 2-.3 3.5-.9 4.5l-.8-.4c.6-1 .9-2.4.9-4.1v-4c1.2 0 2.3-.2 3.2-.6l.4.8a9 9 0 0 1-2.8.6v1.6h3v.9h-1v5.3h-.9v-5.3h-1z" fill="#000"/><g><path fill="url(#g)" opacity=".2" d="M23.7 45l48.9.7-23-18.4z" transform="translate(337.5 125.5)"/><path d="M47.3 12.2c2.3 1.3 2.3 3.4 0 4.7L28.9 27.6a9.3 9.3 0 0 1-8.4 0L1.7 16.9c-2.3-1.3-2.3-3.4 0-4.7L20.3 1.5c2.3-1.3 6-1.3 8.3 0l18.7 10.7z" fill="url(#u)" transform="translate(337.5 125.5)"/><path d="M48.7 15.3v.1a3 3 0 0 1-.6.5l-.4.3-.3.3-18.6 10.7a6.6 6.6 0 0 1-1.6.6 8.3 8.3 0 0 1-1.3.3h-1.2-.1a11 11 0 0 1-2.1-.2h-.2l-.8-.3h-.1l-1-.4L1.9 16.5C.6 15.8 0 15 0 14.1v17.2c0 .9.6 1.7 1.7 2.4l18.7 10.6.9.4.2.1.5.2h.3l.2.1h.1l.6.1h.4l.2.1H25.9l.5-.1h.2l.6-.2.3-.1h.1l1.2-.6 18.6-10.6.3-.3c.2 0 .3-.2.4-.3l.4-.4.2-.2v-.1l.2-.4.1-.3v-.3a28868.1 28868.1 0 0 0 0-16.7l-.3.6z" fill="url(#v)" transform="translate(337.5 125.5)"/><path d="M387 139.7c0 .9-1 2-2.2 2.8L366.3 153a9.3 9.3 0 0 1-8.4 0l-18.7-10.6c-1.2-.7-1.1-1.6-1-2.6" stroke="#A3B1D9" stroke-width=".5" stroke-linecap="round"/><path d="M387 148.2c0 .9-1 1.8-2.2 2.5l-18.5 10.6a9.3 9.3 0 0 1-8.4 0l-18.7-10.6c-1.2-.7-1.3-1.9-1.2-2.8" stroke="#A3B1D9" stroke-width=".5" opacity=".4" stroke-linecap="round"/><g fill="#A4B8EB"><path d="M381.5 155.6l-1.6 1v2.7l1.6-1z"/><path opacity=".5" d="M378.8 157.2l-1.7 1v2.7l1.7-1z"/><path d="M384.3 154l-1.6 1v2.7l1.6-1z"/></g><path d="M344 161l13.4 7.6a9.4 9.4 0 0 0 9.8.3l17.6-10c1.8-1.3 1.8-1.8 1.8-2.7v-16.6c0-1-3-2.5-4.8-3.6l-16-8.9a9 9 0 0 0-6.7 0l-19.9 11.2c-.6.5-.8 1.4-.8 1.8V155c0 2.6 2.7 4.8 5.6 6.2z" stroke="#555A6F" stroke-width="1.3" stroke-linejoin="round"/><path d="M18 17.2L32 15.5l.2-.3-.1-.3-8.8-6-5.2 8.3m18-.7c-.3.3-.8.5-1.5.5-.6 0-1.2 0-1.7-.2h-.1l-.2-.1-.1-.1-.3-.2-13 1.5v.2l-.4.4c-.3.3-.9.5-1.5.6-.6 0-1.2 0-1.7-.2h-.1l-.2-.2c-.7-.4-.8-1-.3-1.5.3-.3.8-.5 1.4-.6h.3L22 8.1l-.3-.2 1.2-.6 10.7 7.3h.4c.5 0 1 0 1.6.2l.3.1c.7.4.8 1 .2 1.6" fill="url(#z)" fill-rule="nonzero" transform="translate(337.5 125.5)"/></g></g><g><path d="M430 217.6l-3-2.9-2.8 2.9h-22.4a2.5 2.5 0 0 0-2.4 2.5v9.8c0 1.4 1 2.5 2.4 2.5h51.9c1.3 0 2.4-1 2.4-2.5v-9.8c0-1.4-1-2.5-2.4-2.5H430z" stroke="#555A6F" fill="#F0F1F7"/><path d="M408.3 221.3h2.2v-1.2h1l-.1 1.2h5.5v1h-5.7a9.4 9.4 0 0 1-2.8 5.2l-.5-.8c.8-.7 1.5-1.6 1.9-2.7.2-.5.4-1 .5-1.7h-2v-1zm.9 7.3c2.2-.5 3.5-1.5 3.7-3.2v-2.8h1v2.6a4.9 4.9 0 0 0 3.3 3.4l-.4.8a5.4 5.4 0 0 1-3.3-3c-.6 1.5-1.9 2.5-3.9 3l-.4-.8zm6.4-5.2l.9.3c-.4 1-.8 1.8-1.3 2.5l-.7-.4c.5-.6.8-1.4 1.1-2.4zm-4.2.3l.8.2c-.1.9-.4 1.7-.8 2.5l-.8-.3c.4-.7.7-1.5.8-2.4zm8.7 2h6v.6c-.5.7-1.2 1.2-1.9 1.6.9.3 1.9.6 3 .7l-.5.9c-1.3-.3-2.4-.6-3.4-1-1 .4-2.1.7-3.5 1l-.4-.9c1.1-.1 2.1-.4 3-.7-.6-.4-1.2-.9-1.6-1.4h-.7v-.9zm1.7.8c.4.4 1 .7 1.5 1l1.5-1h-3zm-2.1-3v.6c0 2.2-.4 4-1 5.3l-.8-.7c.6-1 .8-2.6.9-4.6V221h3.8l-.4-.7 1-.1.3.8h3.4v.9h-7.2v.9h1.5v-.7h1v.7h2.3v-.7h.9v.7h1.5v.9h-1.5v1.5h-4.2v-1.5h-1.5zm2.4 0v.8h2.4v-.7H422zm6.5-.1l.8-3 1 .2-.6 1.9h1.5l.5-2.4 1 .1a25 25 0 0 1-.5 2.3h4.6v.9H432l-.4 1h4v.7a5 5 0 0 1-1.4 2.2l2.7 1.2-.5.9c-1.2-.4-2.2-1-3-1.5-.8.6-1.8 1.1-3 1.6l-.4-1c1-.3 1.8-.7 2.5-1.1-.6-.6-1.1-1.1-1.4-1.7-.8 1.5-1.7 2.6-2.8 3.5l-.4-.9a11 11 0 0 0 3-5h-2.4zm3.3 1.8c.3.6.8 1.1 1.5 1.6.6-.5 1.1-1 1.4-1.6h-3zm2.5-5c.7.4 1.3 1 1.8 1.5l-.7.7-1.7-1.6.6-.7zm8.4 2.6h.9v1.2h2.8v3.4c0 .7-.4 1-1 1h-1l-.2-.9h.8c.3 0 .4 0 .4-.3v-2.4h-1.8v4.6h-1v-4.6H441v3.7h-1v-3.7c-.4.4-.8.9-1.4 1.3l-.6-.8c1.2-1 2.1-1.9 2.8-3h-2.4v-1h3l.5-1.2 1 .1-.5 1.2h4.7v.9H442a13 13 0 0 1-1.2 1.7h2v-1.2z" fill="#000"/><g><path fill="url(#A)" opacity=".2" d="M19.6 57.6l25.4.2V30.5L28.2 39v.9l9.7 5v2z" transform="translate(413 156.5)"/><path d="M420.5 205l17.2-10.2 11.8 6.8v1.5l-17.1 10.6-12-7.3V205z" stroke="#555A6F" stroke-width="1.3"/><path fill="#F5F9FF" d="M432.4 212.1v1.6l-11.9-7.3V205z"/><path fill="#D5E0F3" d="M432.4 212.1l17.2-10.5v1.5l-17.2 10.6z"/><path fill="#F1F6FF" d="M420.5 205l17.2-10.2 11.9 6.8-17.2 10.5z"/><path stroke-opacity=".6" stroke="#7787C3" stroke-width=".7" d="M423.6 206.7l8.8 5.3v2-2l17.4-10.6"/><g><path fill="#F7FAFF" d="M431 200v7.6l-1.6-.8V199z"/><path fill="#E3EBF9" d="M431 200l10.4-6v7.6l-10.5 6z"/><path stroke="#555A6F" stroke-width=".9" d="M429.4 202.5v4.2l1.5.9 10.5-6v-6l-10.5 6.1v5.9"/></g><g><path d="M40.7 2l.1-.1h.1a1.5 1.5 0 0 1 .4-.1h.4l.1.1L39.2.4h-.1L39 .2h-.1-.4-.4v.1H38l-.3.1L2.2 21.2l-.3.2-.3.3-.1.1-.2.2-.1.2a3 3 0 0 0-.2.2v.1H.8l-.1.3-.1.2H.5v.1l-.1.2v.2H.3v.2l-.1.2v.2l-.1.1v26.5c0 .6.2 1.1.6 1.3l2.7 1.6c-.4-.3-.7-.7-.7-1.4V26.4 26v-.2-.1-.1l.1-.2.1-.2V25l.1-.3a5 5 0 0 1 .3-.4l.1-.3a5.4 5.4 0 0 1 .4-.5v-.1a4.9 4.9 0 0 1 .6-.5l.4-.2L40.4 2a2.5 2.5 0 0 1 .3-.2" fill="url(#B)" transform="translate(413 156.5)"/><path d="M452.6 159c1.2-.7 2.1-.2 2.1 1.1l.1 25.5c0 1.3-1 3-2.1 3.6l-35.1 20.3c-1.2.7-2.1.1-2.1-1.2l-.1-25c0-1.4 1-3 2.1-3.7l35.1-20.7z" stroke-opacity=".6" stroke="#7787C3" stroke-width=".7" fill="#E5EAF3"/><path fill="#F3F6FD" d="M418 181.8l34.6-20.2-.2 24.7-34.5 20.2z"/><path d="M415.6 210h.1l-1.9-1.5c-.3-.2-.6-.7-.6-1.4v-25.8a3.8 3.8 0 0 1 .1-1v-.1l.1-.2a4.4 4.4 0 0 1 .2-.4v-.2l.2-.2.1-.2.1-.1.1-.2a2.6 2.6 0 0 1 .3-.3 5.3 5.3 0 0 1 .5-.5l.3-.2 35.5-20.7a2.7 2.7 0 0 1 .8-.3h.4l.2.1h.1l1.8 1.5c.4.2.7.7.7 1.4v25.8c0 1.4-.9 3-2 3.7l-35.5 20.7c-.6.3-1.2.3-1.6 0z" stroke="#555A6F" stroke-width="1.8" stroke-linejoin="round"/></g><path d="M22 28.2V27l1.4-.9v-5.3l-4.6 2.8v1.8l-1.2.8V24c0-.6.4-1.4 1-1.7l5-3.1c.3-.2.6-.2.7 0 .2 0 .3.2.4.6v5.9c0 .6-.5 1.4-1 1.7l-1.7 1v3.1c0 .7-.5 1.5-1 1.8L15 36.8c-.3.2-.5.2-.7 0-.2 0-.3-.3-.3-.6v-6.7c0-.7.4-1.5 1-1.8l2.5-1.6 1.2-.8 2-1.2h.1c.3-.2.5-.2.7 0 .2 0 .3.3.3.6v3.5zM20.7 32v-6.2L15.3 29v6.2l5.4-3.3zm11-14.6l-1.4-.1-4.7 12-.3 2.9 1.7-2.7 4.6-12zm-2-1.8l3.6.3-5.3 14-3.5 5.4c-.3.4-.6.5-.7.5 0 0-.1-.3 0-.8l.6-5.5 5.4-14z" fill="url(#C)" fill-rule="nonzero" transform="translate(413 156.5)"/></g></g><g><path d="M509.2 261.2l-3-2.8-2.9 2.8H481a2.5 2.5 0 0 0-2.5 2.5v10c0 1.3 1.1 2.4 2.5 2.4h51.8c1.4 0 2.5-1 2.5-2.5v-9.9c0-1.3-1.1-2.5-2.5-2.5h-23.6z" stroke="#555A6F" fill="#F0F1F7"/><path d="M496 264.7v2.3h-1v-1.3h-6.6v1.3h-1v-2.3h3.8l-.4-.8 1-.1.4 1h3.8zm-8.7 2.8h2.8l.8-1.5 1 .3-.7 1.2h5v1h-2c-.4 1-.8 1.7-1.2 2.3l3 1.5-.7.8-3-1.6a6.8 6.8 0 0 1-4.5 1.6l-.5-1c1.6 0 3-.3 4-1-1-.4-1.8-.8-2.7-1l1-1.7h-2.3v-.9zm3.4 1l-.8 1.2 2.1.7c.5-.5.9-1.2 1.2-2h-2.5zm10.7-4.7h.7a14 14 0 0 0 4.3 3l-.5 1-1.4-.8v.9h-2.3v1.5h2.8v.9h-2.8v1.6h3.7v.9h-8.4v-1h3.8v-1.5h-2.9v-1h2.9V268h-2.4v-1l-1.4.8-.5-.8c1.8-.8 3.2-1.8 4.4-3zM499 267h5.5c-1-.6-2-1.4-2.8-2.2-.7.8-1.7 1.6-2.7 2.2zm14-3h.9l-.1 2.4c.5 2.5 1.4 4.4 2.7 5.9l-.7.8a14 14 0 0 1-2.3-4.6v.4a7.3 7.3 0 0 1-2.6 4.2l-.7-.8c1.2-1 2-2.2 2.3-3.6.3-1.2.4-2.8.4-4.7zm-4.5 0l1.6 1.5-.6.7c-.4-.5-1-1-1.7-1.5l.7-.7zm-1.3 3h2.3v4.1l1-.9.2 1a16 16 0 0 1-2 1.6l-.4-.9c.2-.1.3-.3.3-.5v-3.6h-1.4v-.9zm16-1.7h-2.6v-1h5.6v1h-2v2.5h1.9v1h-1.8v3.1h2.1v1h-6.2v-1h1v-5.1h1v5.1h1v-6.6zm-4.7-1.3l1.6 1.5-.6.7-1.6-1.6.6-.6zm-1.3 3h2.2v4l1-.8.2 1-2 1.6-.3-.9.2-.5v-3.6h-1.3v-.9z" fill="#000"/><g><path fill="url(#p)" opacity=".2" d="M30 44.6h29.1V17H30z" transform="translate(485.8 212)"/><path d="M45.4 11.8L45 13l-.1.2-.8 1.1-.4.4c-.2.4-.6.7-1 1v16.6l.6-.4.4-.5.4-.4.1-.2.7-1v-.1l.4-.8v-.4l.2-.2v-.3l.1-.9V10.3l-.1 1.2-.1.3z" fill="url(#q)" transform="translate(485.8 212)"/><path d="M44.6 23l-.1.2-1 1.2-1 .6-.7.6a14 14 0 0 1-3.5 1.4 18.4 18.4 0 0 1-2.8.6h-.4c-.7.2-1.4.2-2.1.2h-.4l-2-.1h-.4l-2-.4-.4-.1a17 17 0 0 1-1.8-.6h-.3a14 14 0 0 1-1.9-1L4 14C1.5 12.4.2 10.5.2 8.6v16.6c0 2 1.3 3.9 3.8 5.3l19.8 12 1.8 1 .5.1 1 .4.7.2h.4l.3.1 1.3.3h.7l.5.1h4.1l.4-.1 1.1-.2h.5l1.2-.4.7-.2.3-.1a14.1 14.1 0 0 0 2.6-1.2l.7-.5.9-.7.8-.9.2-.2.1-.2.2-.4.4-.7v-.1-.2l.2-.4v-.8-17.1c0 .5 0 1-.2 1.4v.1l-.6 1.2z" fill="url(#D)" transform="translate(485.8 212)"/><path d="M42.7 15.6c4 3 3.7 7.3-1 10-4.9 3-13 3-17.9 0L4 14c-5-3-5-7.7 0-10.6C8.4.6 15.7.3 20.7 2.7a24.3 24.3 0 0 1 20.2 1c5.5 3.2 6.1 8.3 1.7 12" fill="url(#s)" transform="translate(485.8 212)"/><path d="M516.2 213c3.9 0 7.7.9 10.6 2.6 5.6 3.3 6.1 8.4 1.7 12 4 3 3.7 7.3-1 10-4.9 3-13 3-17.9 0l-19.8-11.7c-2.4-1.4-3.7-3.3-3.7-5.2" stroke="#A3B1D9" stroke-width=".5"/><path d="M531.3 241.2c-.1 1.9-1.3 3.7-3.7 5.1-5 3-13 3-18 0l-19.8-11.7c-2.4-1.4-3.7-3.3-3.7-5.1" stroke="#A3B1D9" stroke-width=".5" opacity=".4"/><path d="M531.5 236.3v-14" stroke="#A3B1D9" stroke-width=".9"/><path d="M486.7 230.6v5.4c0 1.8-.5 3.7 3.4 6.5l20.1 12.2c7 3.5 14.4 1 15.5.5 1.1-.5 5.3-2.2 5.3-6.3v-8.7-5c.4.2 0-8.4 0-13.5 0-5-9.9-8.3-13.8-8.6-3.9-.3-7 0-10.3 1.4-1.2-.5-6.8-2.7-12.6-1-5.8 1.8-7.6 5-7.6 6.7v10.4z" stroke="#555A6F" stroke-width="1.3" stroke-linejoin="round"/><path fill="#C6D0E9" d="M489.2 227.9l1.9 1.3v3l-1.9-1.3z"/><path fill="#C6D0E9" opacity=".5" d="M492.4 229.7l1.8 1.3v3.1l-1.8-1.3z"/><path d="M33.5 14.2l.8-.4A9.9 9.9 0 0 1 31.5 9a31 31 0 0 1-8.2-1.7l-.2.1c-.2 0-.3.2-.4.3-1.4 1-3.8 2.7-4.3 4.7-.3 1 0 2.4.7 4 2.7.4 4.9.6 6.7.4 2.9-.3 5.5-1.6 7.5-2.5l.2-.1zm3-.2c-.2.3-.5.5-.8.6l-.9.4-.3.2c-2 1-5 2.3-8.4 2.7-2.2.2-4.7 0-8-.5H18l-.3-.2-.2-.1v-.2c-1-1.8-1.2-3.4-1-4.7.7-2.3 3.3-4.1 4.8-5.2l.4-.3.4-.3s.6-.4 1.2-.4h.3l.2.1A27 27 0 0 0 32 8h.2l.7.3.5.3v.2a9 9 0 0 0 3 4.8l.2.3-.2.2z" fill="url(#E)" fill-rule="nonzero" transform="translate(485.8 212)"/></g></g><g fill="#3A51C6" fill-rule="nonzero" opacity=".6"><path d="M399.8 5.4c.3 1 .4 2 .4 2.8H398c.1-.7 0-1.7-.3-2.8h2.1zM394 9.9c.1-.7 0-1.6-.2-2.7h2.2c.2 1 .3 1.9.2 2.7H394zM402.6 10.1l-1.8-.3c.4-.8.6-1.6.8-2.4l1.9.4a15 15 0 0 1-1 2.3"/><path d="M400.3 16.2l1.3-.7-4.7-2.7-1.2.7 4.6 2.7zm3.8-2.2l-4.7-2.6-1.2.7 4.6 2.7 1.3-.8zm3.8-4l-3.9 2.3 3.1 1.8-7.8 4.5c-1.2.7-2.3.7-3.4 0l-1.7-.9 1.1-1 1.5.8c.4.3.9.3 1.3 0l1-.5-4.7-2.7-3 1.8-1.6-1 9.6-5.5 3 1.8 4-2.3 1.5 1zM385.7 12c2.6-.4 5.2-1 7.7-1.6l.8 1c-2.6.8-5.2 1.4-7.7 1.8l-.8-1.2z"/><path d="M410.7 12.7a30 30 0 0 1-4.3.6l-.5-1 4.1-.7.7 1zM429 31.5l-5.8-3.3-1.2.6 5.8 3.4 1.2-.7zm-3.7 2.2l1.2-.7-5.8-3.4-1.2.7 5.8 3.4zm5.2-4.3h-.8l-2.6-.5 4.7 2.7-6.9 4-1.5-.8.5-.4-5.8-3.3-.5.3-1.6-.9 5.2-3-3-.8.7-1.2a52 52 0 0 0 8.7 2.3l-6.1-3.5 1.5-.9 5.2 3 1.3-.7-4-2.4 1.4-.8 4 2.3 1.4-.8 1.6 1-1.4.7 3.2 1.9-1.5.8-3.2-1.8-1.3.7 1.7 1c2.4.2 4.6.3 6.7.2l.4 1.1h-4.7l2.5 1.5-1.4.9-4.4-2.6zM410 21.4l1.4 1c-1.9.8-3.4 1.2-4.7 1.1-1.4 0-3.7-.7-6.7-2.2l.8-1.2c2.4 1.3 4.2 2 5.5 2.1 1.2.1 2.4-.2 3.7-.8"/><path d="M420 19l-.6.4 1.6 1 .7-.4-1.7-1zm-9-2.3l1.6 1 .8-.4-1.5-.9-.9.3zm5.7.4l-.6.4 1.8 1 .6-.3-1.8-1zm-1.8 1l-.7.4 1.9 1.1.6-.4-1.8-1zm-8.4-1.2c1.8.7 3.2 1 4.2 1h.1l-2.6-1.5 3.6-1.4 2.8 1.7.6-.4-3.2-2 1.2-.6 3.3 1.9.6-.4 1.5.9-.6.3 1.8 1 .6-.3 1.5.9-.6.3 3 1.8-3 1.8-3-1.8-.7.4 3.9 2.2c-1.2.7-2 1-2.6 1.1a4 4 0 0 1-2.2-.7l-.7-.4.8-.8.7.5.8.3c.2 0 .4 0 .5-.2l-2.4-1.4-1.5 1-1.5-1 1.5-.8-2.3-1.3a10.6 10.6 0 0 1-3.5-.1l8.3 4.8-4.2 2.4-1.5-1 2.8-1.5-6.6-3.8-2.8 1.6-1.6-1 3.6-2-1-.4.4-1.1z"/><path d="M409.6 23.6c1.5 1.4 2.8 2.7 3.7 4l-2 .2c-1-1.4-2.2-2.7-3.6-4l2-.2z"/></g></g><g><path stroke="#CBCFDE" fill-opacity=".4" fill="#FFF" d="M462 311.1l-166.4 96.2L.8 237 167.9 141z"/><path d="M168.9 196.6l-3-2.8-3 2.8h-34a2.5 2.5 0 0 0-2.5 2.5v10c0 1.3 1 2.4 2.4 2.4h52.8c1.3 0 2.4-1.1 2.4-2.5v-9.9c0-1.4-1-2.5-2.4-2.5h-12.7z" stroke="#555A6F" fill="#F0F1F7"/><path d="M137.4 202.8v1.4h1.4v-1.4h-1.4zm1.4-.9v-1.5h-1.4v1.5h1.4zm-1.4 3.2c-.1 1.4-.3 2.5-.8 3.4l-.7-.7c.4-.8.6-2 .6-3.3v-5h3.1v8c0 .6-.3 1-.9 1h-.8l-.2-1 .8.1c.2 0 .3-.1.3-.5v-2h-1.4zm3.8-1v3.6l1.3-1c-.5-.8-1-1.7-1.2-2.6zm0 3.6v.8h-.9v-9h4.2l-.1 2.7c-.2.4-.5.6-1.2.6h-.8l-.3-.8h1.2l.2-.3.1-1.3h-2.4v2.9h3.4v.8c-.2 1-.5 1.8-.9 2.5l1.4 1-.4.8a8 8 0 0 1-1.5-1c-.4.4-1 .8-1.5 1l-.5-.7zm1-3.6c.2.7.5 1.2.9 1.8l.7-1.8h-1.6zm6.6-5l1 .2-.4.7h4.3v.8c-.6.7-1.3 1.3-2.2 1.8 1.1.4 2.3.6 3.6.8l-.4.8c-1.6-.1-3-.5-4.2-1.1-1.2.5-2.6 1-4.2 1.2l-.4-1a16 16 0 0 0 3.5-.8l-1.3-1c-.3.4-.7.7-1.1.9l-.6-.8c1.2-.6 2-1.4 2.4-2.4zm1.7 3c.7-.3 1.3-.7 1.8-1.2h-3.5c.5.5 1 .9 1.7 1.2zm-.7 1.6h.9v1h3.4c0 1.8-.2 2.8-.5 3.2-.3.3-.8.5-1.5.5H151l-.2-1 1.2.1c.5 0 .8 0 1-.3.1-.2.2-.7.2-1.6h-2.7l-.3.7c-.5.9-1.7 1.6-3.5 2.2l-.7-.8c1.7-.5 2.7-1 3.2-1.7l.3-.4h-2.8v-.9h3l.2-1zm6.7-1.3l.8-2.9 1 .2-.6 1.8h1.5l.5-2.3 1 .1a25 25 0 0 1-.5 2.2h4.6v1H160l-.3.9h4v.8a5 5 0 0 1-1.5 2.2l2.7 1.2-.5.9-3-1.5c-.8.6-1.8 1-3 1.5l-.4-.9c1-.3 1.8-.7 2.5-1.2-.6-.5-1.1-1-1.4-1.6-.7 1.4-1.7 2.6-2.7 3.5l-.5-.9a11 11 0 0 0 3-5h-2.4zm3.3 1.8c.3.6.8 1.2 1.5 1.7.7-.5 1.1-1 1.4-1.7h-3zm2.5-5c.7.5 1.3 1 1.8 1.6l-.7.7c-.4-.6-1-1.1-1.7-1.7l.6-.6zm12 .4v5.6h-.9v-4.7h-2.7v4.7h-1v-5.6h4.7zm-.2 8.7h-1c-.7 0-1-.3-1-1v-1.6a5 5 0 0 1-.5 1c-.5.8-1.3 1.4-2.4 1.8l-.5-.8c1-.4 1.8-1 2.2-1.6.4-.6.6-1.5.7-2.6v-2.4h.9v2.4l-.2 1.7h.7v2c0 .1.1.2.3.2h.6l.3-.1.1-1 .9.2c0 .9-.2 1.4-.4 1.6l-.7.2zm-8-5.5h1v-2H166v-1h3.3v1h-1.2v2h1v1h-1v2l1.2-.5v1l-3.2 1-.2-1 1.3-.3v-2.2H166v-1z" fill="#000"/><path d="M5.5 51.7L47.9 49l-7.7-12c-3.4-2.3-7.4-2.4-12-.5-4.4 2-12 7-22.7 15.2z" fill="url(#a)" opacity=".2" transform="translate(148.2 142)"/><path d="M173 181.3v1l-14.7 8.2v-16 16l-.7-.4v.9l-4 2.2-4-2.2v-18.6-.8l.1-.2v-.3l.1-.2v-.3l.1-.2v-.1l.1-.2v-.2l.1-.2.1-.1.2-.5.2-.4v-.1l.1-.1v-.2l.2-.2v-.1l.3-.4.1-.2.2-.2v-.1l.2-.2v-.1l.2-.2.2-.2.1-.2.3-.3h.1l.1-.2a8.8 8.8 0 0 1 .4-.3l.2-.2.3-.2h.1l.4-.3 6-3.4-3-1.8c-1.2-.7-2-2.1-2-4.1v-.8-.2l.1-.3v-.1l.1-.6v-.2-.1l.2-.3v-.3l.1-.2v-.3l.1-.2.2-.3v-.2-.1l.3-.6.3-.5v-.2l.2-.2v-.2l.3-.4v-.1l.4-.6.2-.2.2-.3v-.2l.3-.2.1-.2.2-.2.2-.3.1-.1.2-.2.4-.4.1-.2.2-.1a15 15 0 0 1 .6-.5l.2-.2.4-.3.2-.2a9 9 0 0 1 1.4-.7l.1-.1h.2l.4-.2H163.4l.3-.1h.2l.1-.1h1.4l.1.1h.2l.1.1a3 3 0 0 1 .4.2l4 2.3c1.1.6 1.9 2 1.9 4a12.3 12.3 0 0 1-1.4 5.4H172l.1.1h.1a2.1 2.1 0 0 1 .3.2l3.9 2.2c.8.5 1.3 1.5 1.3 2.9v18.6l-3.9 2.3v-16.2 16.2zM158 167l15-8.7-15 8.6zm7.5-20.5z" stroke="#555A6F" stroke-width="2.7" fill="#F1F6FF" stroke-linecap="round" stroke-linejoin="round"/><path fill="#D5E0F3" d="M173.7 181.8l-3.9-2.3v-16.1l3.9 2.2zM158.3 190.5l-3.9-2.2v-16.1l3.9 2.2z"/><path d="M26 15.2a4.3 4.3 0 0 1 .9-.3h.8l.3.2h.1l.3.1-4-2.2-.2-.2H24h-.1-.1v-.1h-.3-.1-.2-.1-.1-.5l-.2.1-.3.1H22v.1c-.3 0-.4.2-.6.3l-15 8.5-.5.3-.1.1-.3.2-.2.1a8.7 8.7 0 0 0-.4.4l-.2.2-.3.3v.1l-.1.1-.2.2-.1.2h-.1l-.1.2-.1.2-.2.2v.1l-.3.4v.1l-.2.3-.1.1v.2l-.1.1-.2.3-.2.5v.2l-.1.2v.2l-.1.1v.2l-.1.2v.2h-.1V28.7l-.1.1v19.5l4 2.2-.1-18.6V31v-.2-.3l.1-.3.1-.2a8.8 8.8 0 0 1 .3-.8V29l.2-.5a10.6 10.6 0 0 1 .5-1l.4-.6a10 10 0 0 1 .8-1l.2-.2a9.7 9.7 0 0 1 1.3-1.2l.1-.1.5-.3 15-8.6.6-.3h.1" fill="url(#b)" transform="translate(147.9 142.8)"/><path d="M19.9 15.5c2.5-1.4 4.5-.2 4.5 2.6v18.6l-3.9 2.2V23l-.8.4v16L5.2 47.8V31.6l-.8.4v16.2L.5 50.4V31.8c0-2.8 2-6.3 4.5-7.7l15-8.6z" fill="url(#c)" transform="translate(153.2 142.8)"/><path d="M11.8 13.8a10.2 10.2 0 0 1 .2-1v-.3l.1-.3.2-.5v-.2l.2-.5.1-.3.3-.7a14.8 14.8 0 0 1 .7-1.4l.1-.2.4-.6.1-.2a15.8 15.8 0 0 1 1-1.4c.2 0 .3-.2.3-.3l.5-.4.2-.3a15 15 0 0 1 .6-.5l.3-.2.4-.3.2-.1a9.5 9.5 0 0 1 1.2-.7h.1l.4-.2a6.5 6.5 0 0 1 1.3-.4H22l.4.2.5.2L19 1a3 3 0 0 0-.4-.2h-.1l-.2-.1H18 18V.5H17 17h-.2-.2-.4l-.2.1H16l-.5.2h-.1l-.2.2a6.4 6.4 0 0 0-.7.3 9 9 0 0 0-.7.4l-.2.2-.4.3-.2.1a13.2 13.2 0 0 0-.6.6l-.1.1-.1.1-.5.5-.1.1-.1.2-.3.3-.2.2v.2l-.3.2V5c-.2 0-.2.2-.3.3l-.1.1v.1a16.1 16.1 0 0 0-.4.6v.1c-.2.1-.2.3-.3.4l-.1.2-.1.2v.1l-.3.5v.1l-.3.6-.1.3-.1.3v.2l-.2.3v.4l-.2.4v.3l-.1.5v.5l-.1.2v.7c0 2 .7 3.5 1.9 4.2l3.9 2.2c-1.2-.7-1.9-2-1.9-4.1V14v-.3" fill="url(#d)" transform="translate(147.2 142.8)"/><path d="M165.5 146.5c3.6-2 6.6-.4 6.6 3.7 0 4-3 9-6.5 11-3.6 2.1-6.5.5-6.6-3.6 0-4 3-9 6.5-11.1" stroke="#B1B7C6" stroke-width=".5" fill="#D5E0F3"/><g><path d="M191.3 172.2c-.4 4.8-2.5 9-6.3 12.2-3.2 2-5.9 2.5-8.2 1.2l-2.3-2.2c-4.2-3.7-4.6-8.6-1.4-14.6 3.5-5.7 7.5-7.6 12.2-5.5l3.5 2c1.8 1.3 2.7 3.6 2.5 6.9z" fill="#FFFDFD"/><path d="M3.1 2.8l5-2.2c3.6-1.2 7 .6 10.4 5.5 5.3 8.2 1.2 13.6-.5 15.1a9.2 9.2 0 0 0-2 2.1c3-3.9 3-8.6-.3-14C12.1 3.8 8 1.6 3.1 2.9z" fill="url(#e)" transform="matrix(-1 0 0 1 191.9 162)"/><path d="M182.8 185.7c-5 2.2-9-.7-9-6.4s4-12 9-14.3c4.9-2.1 8.9.7 8.9 6.4s-4 12-9 14.3z" fill="#D5E0F3"/><path d="M182.8 185.7c-5 2.2-9-.7-9-6.4s4-12 9-14.3c4.9-2.1 8.9.7 8.9 6.4s-4 12-9 14.3z" stroke-opacity=".6" stroke="#7787C3" stroke-width=".5"/><path d="M191.3 172.2c-.4 4.8-2.5 9-6.3 12.2-3.2 2-5.9 2.5-8.2 1.2l-2.3-2.2c-4.2-3.7-4.6-8.6-1.4-14.6 3.5-5.7 7.5-7.6 12.2-5.5l3.5 2c1.8 1.3 2.7 3.6 2.5 6.9z" stroke="#555A6F" stroke-width="1.3" stroke-linejoin="round"/><path d="M11.7 15.1l-3.7 2c.3 2 1.8 2.8 3.7 2.1v-4zm1.7 3.2c.7-.5 1.3-1.1 1.8-1.8l-1.8-1v2.8zm0 1.9v3.2l-1 .4-.6.2v-3c-2.9 1.2-5 0-5.5-2.9L4 19.4l-.1-1.7 2.4-1.4c.4-3.3 2.6-7 5.4-8.9V3.8a6 6 0 0 1 1-.5l.6-.2v3.4c1.2-.5 2.2-.5 3-.3l-1.1 2c-.5-.2-1.2-.1-1.8.1v2.9l1.8-3 1.2-2 1.8-3.1.8.2.4.5-1.9 3a4 4 0 0 1 1.3 2.6L21.4 8v1.8l-2.6 1.4c-.2 1.4-.6 2.7-1.3 4l2.4 1.3s-.3.7-1.2 2L16.4 17c-.9 1.2-1.9 2.3-3 3zM8 15.4l3.7-2v1.5-5.6A10 10 0 0 0 8 15.3zm9.1-3.2l1.6-1-1.6 1-2.6 1.4 1.9 1c.3-.8.6-1.6.7-2.4zm.2-5l-1 1.6-1.8 3 2.6-1.4a3 3 0 0 0-.7-1.6l.9-1.6zM12 14.7l.6-1 .3.3-.3-.2-.6 1zm1.7-1.6l.2-.2-.2.2-.6 1 .6-1 .3.2-.3-.2z" fill="url(#o)" fill-rule="nonzero" transform="translate(170 162)"/></g><g><path d="M233.5 245.8l-3-2.9-2.9 2.9h-22.3a2.5 2.5 0 0 0-2.5 2.5v9.9c0 1.3 1.1 2.5 2.5 2.5H257c1.4 0 2.5-1.2 2.5-2.5v-10c0-1.3-1.1-2.4-2.5-2.4h-23.6z" stroke="#555A6F" fill="#F0F1F7"/><path d="M219.5 250.9v4.6h-1v-3.7H214v3.8h-1v-4.2l-.6.5-.7-.7a9.3 9.3 0 0 0 3-2.8l1 .2-.4.5h3.1v.7l-.9 1h2zm-3.2 0l.9-1h-2.7l-.9 1h2.7zm.5 4.3c1.3.4 2.5 1 3.6 1.6l-.5.8a16 16 0 0 0-3.5-1.7l.4-.7zm-1-3h.9v1.4c-.1 1.1-.5 2-1.1 2.6-.7.6-1.7 1-3.1 1.4l-.6-.8c1.5-.3 2.5-.7 3-1.2a3 3 0 0 0 .8-2v-1.4zm6.3-3.1h1.9v-.8h.9v.8h1.7v.9H225v.7h2.2v-2.4h.8v2.4h2.5v.8H228l.3 2v.6c.4-.7.6-1.4.8-2.2l.9.4a12 12 0 0 1-1.2 3c0 .2 0 .4.2.5.2.5.4.7.5.7l.3-1.5.8.5c-.2 1.3-.5 2-1 2-.3 0-.7-.3-1.1-1l-.3-.3c-.5.6-1 1-1.7 1.4l-.5-.8a5 5 0 0 0 1.8-1.6l-.4-1.4a15 15 0 0 1-.3-2.3h-5.5v-.8h2.4v-.7h-2v-1zm6.8-.7c.5.6 1 1 1.2 1.5l-.7.5-1.2-1.5.7-.5zm-2.3 7v.9l-1.5.1v1.2h-.9v-1l-2.2.1v-.9l2.2-.1v-.7h-1.8l-.2-.8.6-1h-1v-.9h1.4l.2-.7 1 .2-.2.5h2.5v.8h-2.9a9 9 0 0 1-.6 1h1v-.6h1v.7h1.4v.8H225v.6l1.5-.2zm11.9-1.8l.2.9c-.8.6-1.9 1.2-3.1 1.6l-.4-.9c1.3-.4 2.4-1 3.3-1.6zm-1.9-2l1.6 1.3-.7.7c-.3-.4-.8-.9-1.5-1.4l.6-.6zm-.4-3.3l1 .1-.5 1.4h3.6l-.1 6.5c-.1.8-.6 1.2-1.5 1.2h-1.5l-.2-1 1.6.1c.4 0 .6-.2.7-.7v-5.2h-3c-.3.7-.7 1.4-1.2 2l-.6-.9c.8-1 1.4-2.1 1.7-3.5zm-4.7 2.6h1v-2.5h1v2.5h.9v1h-1v3c.5 0 .9-.2 1.3-.4v1l-3.1 1-.3-1.1 1.2-.2v-3.3h-1v-1zm12.6 0l-.5-.7c.7-.4 1.2-1 1.7-2l1 .3-.4.5h1.5v.6a8 8 0 0 1-.5.8h1v3.7h-1.5v.6h1.8v.8h-2v.1l1.8 1-.5.8-1.6-1.1c-.3.5-.9 1-1.6 1.3l-.6-.6c.8-.4 1.3-1 1.6-1.5h-1.5v-.8h1.7v-.6h-1.4v-3.3zm1.9-.5l.5-.7h-1.1l-.7.7h1.3zm1.1 3v-.8h-.7v.8h.7zm-1.5 0v-.8h-.7v.8h.7zm-.7-1.5h.7v-.8h-.7v.8zm1.5-.8v.8h.7v-.8h-.7zm-3.4-2.7l.8.3c-.4 1.1-1.1 2-2.1 3l-.3-1c.7-.6 1.3-1.4 1.6-2.3zm.2 2.6l.8.4-.7 1.3v5h-.9v-4l-.8.8-.2-1a7 7 0 0 0 1.8-2.5zm5.9 6.6h-.7l-.2-.9h.6c.2 0 .3 0 .3-.3v-4h-1v-.9h2.5v1h-.6v4.2c0 .6-.3.9-.9.9zm-.9-8.6h2.3v.9h-2.3v-1z" fill="#000"/><g><path fill="url(#p)" opacity=".2" d="M30 44.6h29.1V17H30z" transform="translate(214.6 198.3)"/><path d="M45.4 11.8L45 13l-.1.2-.8 1.1-.4.4c-.2.4-.6.7-1 1v16.6l.6-.4.4-.5.4-.4.1-.2.7-1v-.1l.4-.8v-.4l.2-.2v-.3l.1-.9V10.3l-.1 1.2-.1.3z" fill="url(#q)" transform="translate(214.6 198.3)"/><path d="M44.6 23l-.1.2-1 1.2-1 .6-.7.6a14 14 0 0 1-3.5 1.4 18.4 18.4 0 0 1-2.8.6h-.4c-.7.2-1.4.2-2.1.2h-.4l-2-.1h-.4l-2-.4-.4-.1a17 17 0 0 1-1.8-.6h-.3a14 14 0 0 1-1.9-1L4 14C1.5 12.4.2 10.5.2 8.6v16.6c0 2 1.3 3.9 3.8 5.3l19.8 11.7 1.8 1h.4l1.2.5.6.1.4.1h.3l1.2.3h.5l.3.1h.5l1.2.1H35l.1-.1h.4l1-.2.5-.1 1.3-.4.7-.1.3-.2a14.1 14.1 0 0 0 2.6-1.2l.7-.4.8-.7 1-1v-.2l.2-.2.2-.3.4-.8v-.2l.2-.5v-.7-16.8c0 .5 0 1-.2 1.4v.1l-.6 1.2z" fill="url(#r)" transform="translate(214.6 198.3)"/><path d="M42.7 15.6c4 3 3.7 7.3-1 10-4.9 3-13 3-17.9 0L4 14c-5-3-5-7.7 0-10.6C8.4.6 15.7.3 20.7 2.7a24.3 24.3 0 0 1 20.2 1c5.5 3.2 6.1 8.3 1.7 12" fill="url(#s)" transform="translate(214.6 198.3)"/><path d="M245 199.3c3.9 0 7.7 1 10.6 2.7 5.6 3.2 6.1 8.3 1.7 12 4 3 3.7 7.2-.9 10-5 2.9-13 2.9-18 0l-19.8-11.8c-2.4-1.4-3.6-3.2-3.7-5.1" stroke="#555A6F" stroke-width=".5"/><path d="M260 227.5c0 2-1.2 3.8-3.6 5.2-5 3-13 3-18 0L218.6 221c-2.4-1.4-3.6-3.3-3.7-5.2" stroke="#A3B1D9" stroke-width=".5" opacity=".4"/><path d="M260.3 222.6v-14" stroke="#A3B1D9" stroke-width=".9"/><path d="M215.6 217v5.4c0 1.8-.5 3.6 3.3 6.4l20.2 12.2c7 3.6 14.3 1.1 15.4.6 1.1-.6 5.3-2.3 5.3-6.4v-8.6-5c.4.2 0-8.5 0-13.5s-9.8-8.4-13.7-8.7c-4-.3-7 0-10.4 1.5-1.2-.6-6.7-2.7-12.6-1-5.8 1.7-7.5 5-7.5 6.7v10.3z" stroke="#555A6F" stroke-width="1.3" stroke-linejoin="round"/><path fill="#A5ADC1" d="M218 214.2l2 1.3v3l-2-1.2z"/><path fill="#A5ADC1" opacity=".5" d="M221.2 216l1.9 1.4v3l-2-1.2z"/><path d="M15.4 12.4l-.3-.1 3.5-9.7c.3 0 .8-.2 1.1-.4.7-.5.8-1.4.1-1.9-.6-.5-1.7-.4-2.5.2-.3.2-.5.6-.5.8L2.9 3l-.2-.2c-.5-.4-1.4-.4-2 .1-.7.5-.8 1.2-.3 1.6l.5.2L2.8 10c-.7.5-.8 1.3-.2 1.8.6.5 1.7.4 2.5 0l7.7 1.9.4.3c.5.4 1.5.3 2.1-.1.6-.5.7-1.2 0-1.6zm-2.1.2c-.2 0-.2.2-.4.3l-7.2-2v-.7l12-7.7h.3l-3.5 9.7a2 2 0 0 0-1.2.4zm3.5-10.8l.1.2L5 9.6h-1L2 4.6l.4-.3c.3-.2.5-.6.5-.9l13.8-1.6zM1 3.2c.4-.3 1-.3 1.2 0 .3.2.3.6 0 .9-.4.2-1 .3-1.3 0-.3-.2-.3-.6.1-.9zm2 8.3c-.4-.3-.3-.8.2-1.2.5-.4 1.3-.4 1.7 0 .4.2.4.8-.1 1.2-.6.3-1.3.4-1.7 0zm10.6 2.3c-.4-.3-.3-.7 0-1 .4-.3 1-.3 1.3 0 .3.2.3.6 0 .9-.4.3-1 .3-1.3 0z" transform="translate(230.4 204.4)" fill="url(#t)" fill-rule="nonzero"/></g></g><g><path d="M309 287.6l-3-2.8-2.9 2.8h-22.3a2.5 2.5 0 0 0-2.5 2.5v10c0 1.3 1.1 2.4 2.5 2.4h51.8c1.4 0 2.5-1.1 2.5-2.5v-9.9c0-1.4-1.1-2.5-2.5-2.5H309z" stroke="#555A6F" fill="#F0F1F7"/><path d="M288.4 293.8v1.4h1.4v-1.4h-1.4zm1.4-.9v-1.5h-1.4v1.5h1.4zm-1.4 3.2c0 1.4-.3 2.5-.7 3.4l-.7-.7c.4-.8.6-2 .6-3.3v-5h3.1v8c0 .6-.3 1-1 1h-.7l-.2-1 .7.1c.2 0 .3-.1.3-.5v-2h-1.4zm3.9-1v3.6l1.3-1c-.6-.8-1-1.7-1.2-2.6h-.1zm0 3.6v.8h-1v-9h4.3c0 1.4 0 2.2-.2 2.7-.1.4-.5.6-1.1.6h-.9l-.2-.8h1.1l.3-.3v-1.3h-2.3v2.9h3.4v.8c-.2 1-.5 1.8-1 2.5l1.5 1-.5.8a8 8 0 0 1-1.5-1c-.4.4-.9.8-1.4 1l-.5-.7zm1-3.6c.1.7.4 1.2.8 1.8.3-.5.6-1.1.7-1.8h-1.6zm6.5-5l1 .2c0 .3-.2.5-.3.7h4.3v.8c-.6.7-1.4 1.3-2.2 1.8 1 .4 2.2.6 3.6.8l-.5.8c-1.5-.1-3-.5-4.2-1.1-1.2.5-2.6 1-4.1 1.2l-.5-1a16 16 0 0 0 3.6-.8c-.5-.2-1-.6-1.3-1l-1.1.9-.6-.8c1.1-.6 2-1.4 2.3-2.4zm1.7 3c.7-.3 1.3-.7 1.9-1.2h-3.5-.1c.5.5 1.1.9 1.7 1.2zm-.7 1.6h1l-.1 1h3.4c0 1.8-.1 2.8-.4 3.2-.3.3-.8.5-1.5.5H302l-.3-1 1.3.1c.5 0 .8 0 1-.3l.2-1.6h-2.7l-.3.7c-.5.9-1.7 1.6-3.6 2.2l-.6-.8c1.6-.5 2.7-1 3.2-1.7l.2-.4h-2.8v-.9h3.1l.1-1zm6.5-4.1h3.2v.7l-1 2.7a5 5 0 0 1 1 2.4c0 .5-.1.8-.3 1-.3.3-.8.4-1.6.4l-.3-1 .5.1.6-.1.1-.4c0-.6-.3-1.4-1-2.2.5-1 .8-2 1-2.7h-1.3v8h-1v-9zm4.5 2.6v1h2.7v-1h-2.7zm2.7-.8v-1h-2.7v1h2.7zm-1.8 2.6h-.9v3.1l1.6-.6.2 1-2.7.8-.3-.8c.2 0 .3-.2.3-.3v-7.6h4.5v4.4h-1.8l.5 1.4a5 5 0 0 0 1.3-1l.6.5c-.4.5-1 1-1.4 1.2.4.6 1 1 1.6 1.5l-.5.8a6.3 6.3 0 0 1-3-4.4zm7.3-.5l-.3-.8h.2c.4-.3.8-.8 1.4-1.7h-1.6v-.8h2.7l-.4-1 1-.1.3 1h2.6v1h-3.7l-1 1.5 3-.2-.6-.8.8-.5a16 16 0 0 1 1.6 2.2l-.8.6-.5-.8-4.7.4zm-2-4.2l1.5 1.3-.7.7-1.5-1.3.7-.7zm-.3 2.4l1.6 1.5-.7.6c-.4-.4-.9-1-1.6-1.4l.7-.7zm.8 2.7l.9.3-1.3 3.6-.9-.4a34 34 0 0 0 1.3-3.5zm3.4-.5h1v4.4h-1v-4.4zm-1.6 0h.9c0 1.3-.2 2.3-.4 2.9a4 4 0 0 1-1.2 1.7l-.6-.8c.5-.4.8-.8 1-1.4a9 9 0 0 0 .3-2.4zm4.9 4.5h-.5c-.6 0-1-.3-1-1V295h1v3.6h.4c.2 0 .2-.2.3-.4V297l.8.3c0 1 0 1.5-.2 1.7 0 .2-.4.3-.8.4z" fill="#000"/><g><path fill="url(#g)" opacity=".2" d="M23.7 45l48.9.7-23-18.4z" transform="translate(292 239.3)"/><path d="M47.3 12.2c2.3 1.3 2.3 3.4 0 4.7L28.9 27.6a9.3 9.3 0 0 1-8.4 0L1.7 16.9c-2.3-1.3-2.3-3.4 0-4.7L20.3 1.5c2.3-1.3 6-1.3 8.3 0l18.7 10.7z" fill="url(#u)" transform="translate(292 239.3)"/><path d="M48.7 15.3v.1a3 3 0 0 1-.6.5l-.4.3-.3.3-18.6 10.7a6.6 6.6 0 0 1-1.6.6 8.3 8.3 0 0 1-1.3.3h-1.2-.1a11 11 0 0 1-2.1-.2h-.2l-.8-.3h-.1l-1-.4L1.9 16.5C.6 15.8 0 15 0 14.1v17.2c0 .9.6 1.7 1.7 2.4l18.7 10.6.9.4.2.1.5.2h.3l.2.1h.1l.6.1h.4l.2.1H25.9l.5-.1h.2l.6-.2.3-.1h.1l1.2-.6 18.6-10.6.3-.3c.2 0 .3-.2.4-.3l.4-.4.2-.2v-.1l.2-.4.1-.3v-.3a28868.1 28868.1 0 0 0 0-16.7l-.3.6z" fill="url(#v)" transform="translate(292 239.3)"/><path d="M341.4 253.4c.1 1-.9 2.1-2 2.8L320.7 267a9.3 9.3 0 0 1-8.4 0l-18.7-10.7c-1.2-.7-1.1-1.6-1-2.5" stroke="#A3B1D9" stroke-width=".5" stroke-linecap="round"/><path d="M341.5 262c0 .8-1 1.7-2.2 2.4l-18.5 10.7a9.3 9.3 0 0 1-8.4 0l-18.7-10.7c-1.2-.7-1.3-1.8-1.2-2.8" stroke="#A3B1D9" stroke-width=".5" opacity=".4" stroke-linecap="round"/><g fill="#A4B8EB"><path d="M336 269.4l-1.6 1v2.6l1.6-1z"/><path opacity=".5" d="M333.3 271l-1.7 1v2.7l1.7-1z"/><path d="M338.8 267.7l-1.6 1v2.7l1.6-1z"/></g><path d="M298.5 274.8l13.4 7.5a9.4 9.4 0 0 0 9.8.4c1-.7 16.5-9.4 17.6-10 1.8-1.3 1.8-1.8 1.8-2.8v-16.5c0-1-3-2.6-4.8-3.6l-16-9a9 9 0 0 0-6.7 0l-19.9 11.3c-.6.4-.8 1.4-.8 1.8v14.7c0 2.6 2.7 4.8 5.6 6.2z" stroke="#555A6F" stroke-width="1.3" stroke-linejoin="round"/><path d="M28.2 13l1.9 1-1.3.8-1.9-1-2 1-1.2-.6 2-1.2 1.2-.7 2.3-1.3 1.3.7-2.3 1.3zm-4.6-1.2l1.2-.7 2.1 1.2-1.2.7-2.1-1.2zm.8 5.5L23 18 18 15.1l1.2-.7 5.3 3zM9 15.2l17-9.7L40 13.3 23 23 9.2 15.2zm2.3 0l11.7 6.5 14.6-8.4L26 6.8l-14.6 8.4z" fill="url(#w)" fill-rule="nonzero" transform="translate(292 239.3)"/></g></g><g><path d="M383.6 330.4l-3-2.9-2.9 2.9h-22.3a2.5 2.5 0 0 0-2.4 2.5v9.9c0 1.4 1 2.5 2.4 2.5h51.9c1.3 0 2.4-1.1 2.4-2.5v-9.9c0-1.4-1-2.5-2.4-2.5h-23.7z" stroke="#555A6F" fill="#F0F1F7"/><path d="M363 336.5v1.5h1.5v-1.5H363zm1.5-.8v-1.5H363v1.5h1.4zm-1.5 3.2c0 1.3-.3 2.5-.7 3.4l-.7-.7c.4-.9.6-2 .6-3.3v-5h3.1v7.9c0 .7-.3 1-.9 1h-.8l-.2-.8h.7c.3 0 .4-.2.4-.5v-2H363zm3.9-1v3.6c.5-.3 1-.7 1.3-1.1-.6-.8-1-1.6-1.2-2.5h-.1zm0 3.6v.7h-.9v-8.8h4.2c0 1.3 0 2.1-.2 2.5 0 .5-.5.7-1.1.7h-.8l-.3-.8h1.1l.3-.3.1-1.3h-2.4v2.8h3.4v.8c-.2 1-.5 1.9-1 2.5l1.5 1.1-.5.8a8 8 0 0 1-1.5-1.1l-1.4 1.1-.5-.7zm1-3.6c.1.6.4 1.2.8 1.7.3-.5.6-1 .7-1.7h-1.6zm6.6-5l1 .2-.4.7h4.3v.7c-.6.7-1.3 1.3-2.2 1.8 1 .4 2.3.7 3.6.8l-.4 1c-1.6-.3-3-.6-4.2-1.2-1.2.5-2.6.9-4.2 1.1l-.5-.9a16 16 0 0 0 3.6-.8l-1.3-1c-.3.4-.7.6-1.1.9l-.6-.8c1.2-.7 2-1.5 2.4-2.4zm1.7 3l1.8-1.2h-3.5c.4.5 1 .8 1.7 1.2zm-.8 1.6h1l-.1 1h3.4c0 1.7-.1 2.8-.4 3.1-.3.4-.8.6-1.5.6h-1.2l-.3-1 1.3.1c.5 0 .8-.1 1-.3 0-.2.2-.8.2-1.7h-2.7l-.3.7c-.5 1-1.7 1.7-3.5 2.3l-.7-.8c1.7-.5 2.7-1 3.2-1.8l.2-.4h-2.8v-.8h3.1l.1-1zm9.7 3.2l.5-1.8.8.1-.2.8h1.3v-1.2h-2.3v-.8h2.3v-.7h1v.7h1.6v.8h-1.7v1.2h2v.9h-2v1.5h-.9v-1.5h-2.4zm-3.2-7.4h3.1v.8a53 53 0 0 1-1 2.7c.6 1 1 1.7 1 2.4 0 .5-.1.8-.3 1-.3.3-.8.4-1.5.4l-.3-1h1l.1-.4c0-.7-.3-1.4-1-2.3.5-1 .8-1.9 1-2.7h-1.2v8h-1v-8.9zm4.8-.3l.9.2-.4.5h2.9v.8a4 4 0 0 1-1.4 1.6l2 .5-.2.8c-1.1-.2-2-.4-2.7-.8-.8.4-1.6.7-2.7 1l-.4-1c.8 0 1.6-.3 2.2-.5l-.9-.8-.7.6-.6-.7c.8-.6 1.4-1.3 2-2.2zm1.1 2.6a4 4 0 0 0 1.2-1h-2.3c.2.4.6.8 1.1 1zm6.9 4.4v.9l-3 .8-.2-.9 3.2-.8zm-1.4-7l1 .3c-.6 1.2-1 2.1-1.6 2.9l1.2-.2.6-1 .8.3c-.9 1.5-1.6 2.6-2.2 3.3l2-.5v.9l-3.2.6-.2-.8.4-.3c.3-.3.8-.9 1.2-1.6l-1.5.2-.2-.9.4-.3c.5-1 1-1.9 1.3-3zm2.8 1.2h-1v-.9h4.6v.6a43 43 0 0 1-.5 2.2h1.2v.5a8 8 0 0 1-1.3 3.5c.5.5 1.1 1 1.8 1.3l-.6.8c-.7-.4-1.3-.9-1.8-1.4a7 7 0 0 1-2 1.5l-.6-1c.8-.3 1.5-.8 2-1.3a9 9 0 0 1-1.2-2.3 9 9 0 0 1-1.8 4.5l-.8-.6c1.3-1.5 2-3.8 2-7v-.4zm2.4 5.1c.5-.7.8-1.5 1-2.4h-1.4l.6-2.7H397v1.7c.2 1.3.7 2.4 1.5 3.4z" fill="#000"/><g><path fill="url(#g)" opacity=".2" d="M23.7 45l48.9.7-23-18.4z" transform="translate(366.6 282)"/><path d="M47.3 12.2c2.3 1.3 2.3 3.4 0 4.7L28.9 27.6a9.3 9.3 0 0 1-8.4 0L1.7 16.9c-2.3-1.3-2.3-3.4 0-4.7L20.3 1.5c2.3-1.3 6-1.3 8.3 0l18.7 10.7z" fill="url(#u)" transform="translate(366.6 282)"/><path d="M48.7 15.3v.1a3 3 0 0 1-.6.5l-.4.3-.3.3-18.6 10.7a6.6 6.6 0 0 1-1.6.6 8.3 8.3 0 0 1-1.3.3h-1.2-.1a11 11 0 0 1-2.1-.2h-.2l-.8-.3h-.1l-1-.4L1.9 16.5C.6 15.8 0 15 0 14.1v17.2c0 .9.6 1.7 1.7 2.4l18.7 10.6.9.4.2.1.5.2h.3l.2.1h.1l.6.1h.4l.2.1H25.9l.5-.1h.2l.6-.2.3-.1h.1l1.2-.6 18.6-10.6.3-.3c.2 0 .3-.2.4-.3l.4-.4.2-.2v-.1l.2-.4.1-.3v-.3a28868.1 28868.1 0 0 0 0-16.7l-.3.6z" fill="url(#v)" transform="translate(366.6 282)"/><path d="M416 296.2c.1.9-.9 2.1-2 2.8l-18.6 10.6a9.3 9.3 0 0 1-8.4 0L368.3 299c-1.2-.7-1.1-1.6-1-2.5" stroke="#A3B1D9" stroke-width=".5" stroke-linecap="round"/><path d="M416.1 304.7c0 .9-1 1.8-2.1 2.5l-18.6 10.6a9.3 9.3 0 0 1-8.4 0l-18.7-10.6c-1.2-.7-1.2-1.9-1.2-2.8" stroke="#A3B1D9" stroke-width=".5" opacity=".4" stroke-linecap="round"/><g fill="#A4B8EB"><path d="M410.7 312.1l-1.7 1v2.7l1.7-1z"/><path opacity=".5" d="M407.9 313.8l-1.7 1v2.7l1.7-1z"/><path d="M413.5 310.5l-1.7 1v2.7l1.7-1z"/></g><path d="M373.1 317.6l13.4 7.5a9.4 9.4 0 0 0 9.8.3l17.6-10c1.8-1.2 1.9-1.8 1.8-2.7v-16.5c0-1.1-3-2.6-4.8-3.6l-16-9a9 9 0 0 0-6.7 0l-19.8 11.2c-.7.5-.9 1.4-.9 1.9v14.7c0 2.6 2.7 4.8 5.6 6.2z" stroke="#555A6F" stroke-width="1.3" stroke-linejoin="round"/><path d="M18.5 17v.8h9.1v1.3H16.4l.2-6h2l-.1 3.8 12.8-7.8 1.5.9-13 7.8h-1.4V17z" fill="url(#x)" fill-rule="nonzero" transform="translate(366.6 282)"/></g></g><g><path d="M67 255.8l-3-2.9-3 2.9H38.8a2.5 2.5 0 0 0-2.4 2.5v9.9c0 1.3 1 2.5 2.4 2.5h51.9c1.3 0 2.4-1.2 2.4-2.5v-10c0-1.3-1-2.4-2.4-2.4H67z" stroke="#555A6F" fill="#F0F1F7"/><path d="M46.4 262v1.4h1.4v-1.5h-1.4zm1.4-1v-1.4h-1.4v1.5h1.4zm-1.4 3.2c-.1 1.4-.3 2.5-.8 3.4l-.7-.6c.4-.9.6-2 .6-3.4v-4.9h3.1v7.9c0 .6-.3 1-.9 1H47l-.2-.9h.8c.2 0 .3 0 .3-.4v-2h-1.4zm3.8-1v3.6c.5-.3 1-.6 1.3-1-.5-.8-1-1.6-1.2-2.5zm0 3.7v.7h-.9v-8.9h4.2l-.1 2.6c-.2.4-.5.7-1.2.7h-.8l-.3-.8h1.2l.2-.3.1-1.3h-2.4v2.8h3.4v.8c-.2 1-.5 1.8-.9 2.5.4.4.9.8 1.4 1l-.4.9a8 8 0 0 1-1.5-1.1l-1.5 1.1-.5-.7zm1-3.6c.2.6.5 1.2.9 1.7l.7-1.7h-1.6zm6.6-5l1 .2-.4.7h4.3v.7c-.6.7-1.3 1.3-2.2 1.8 1.1.4 2.3.7 3.6.8l-.4.9c-1.6-.2-3-.6-4.2-1.2-1.2.6-2.6 1-4.2 1.2l-.4-.9a16 16 0 0 0 3.5-.8l-1.3-1-1.1.9-.6-.8c1.2-.7 2-1.5 2.4-2.5zm1.7 3c.7-.4 1.3-.8 1.8-1.3h-3.5v.1c.5.4 1 .8 1.7 1.1zm-.7 1.6h.9v1H63c0 1.7-.2 2.8-.5 3.1-.3.4-.8.5-1.5.5H60l-.2-.9h1.2c.5 0 .8 0 1-.2.1-.2.2-.8.2-1.7h-2.7c0 .3-.2.5-.3.7-.5 1-1.7 1.7-3.5 2.2l-.7-.7c1.7-.5 2.7-1 3.2-1.8l.3-.4h-2.8v-.8h3l.2-1zm11-4.6l.2.9h3.7v1.9h-1v-1h-6.5v1h-1v-2H69a6 6 0 0 0-.3-.6l1-.2zm-.7 3.2h.7c.9 1 2.3 1.9 4.2 2.6l-.5.8-1-.4v3.1h-.8v-.3h-4.3v.3h-1v-3.2l-1 .5-.5-.8c1.8-.7 3.3-1.5 4.2-2.6zm-1.7 4.9h4.3V265h-4.3v1.4zm-.4-2.2h5c-1-.6-1.9-1.2-2.5-1.9-.7.8-1.5 1.4-2.5 1.9zm3.7-4c1.2.7 2.3 1.3 3 2l-.6.6a18 18 0 0 0-3-2l.6-.5zm-2.5 0l.6.6c-.8.8-1.9 1.5-3.1 2l-.6-.7c1.3-.5 2.3-1.1 3.1-1.8zm10.6-.8h1v-1h1v1H82v-1h.9v1h1v.9h-1v1H84v1h-5.5v-1h1.2v-1h-1v-.9zm2 2H82v-1.1h-1.3v1zm2.7 1.4v4.8h-.9v-.4h-2.5v.4h-.9v-4.8h4.3zm-3.4 3.5h2.5v-.9h-2.5v1zm0-1.7h2.5v-1h-2.5v1zm-4-6.2l1 .2-.3.8h1.7v1h-2l-.5 1h2.3v1h-1v1h1.4v.8h-1.3v2c.4 0 .8-.3 1.3-.6l.1.9-2.3.9-.4-.8c.2-.1.3-.3.3-.4v-2h-1.2v-.9h1.2v-1H76v-.8l-.3.6-.8-.5c.6-1 1-2 1.3-3.2z" fill="#000"/><g><path fill="url(#g)" opacity=".2" d="M23.7 45l48.9.7-23-18.4z" transform="translate(50 207.4)"/><path d="M47.3 12.2c2.3 1.3 2.3 3.4 0 4.7L28.9 27.6a9.3 9.3 0 0 1-8.4 0L1.7 16.9c-2.3-1.3-2.3-3.4 0-4.7L20.3 1.5c2.3-1.3 6-1.3 8.3 0l18.7 10.7z" fill="url(#u)" transform="translate(50 207.4)"/><path d="M48.7 15.3v.1a3 3 0 0 1-.6.5l-.4.3-.3.3-18.6 10.7a6.6 6.6 0 0 1-1.6.6 8.3 8.3 0 0 1-1.3.3h-1.2-.1a11 11 0 0 1-2.1-.2h-.2l-.8-.3h-.1l-1-.4L1.9 16.5C.6 15.8 0 15 0 14.1v17.2c0 .9.6 1.7 1.7 2.4l18.7 10.6.9.4.2.1.5.2h.3l.2.1h.1l.6.1h.4l.2.1H25.9l.5-.1h.2l.6-.2.3-.1h.1l1.2-.6 18.6-10.6.3-.3c.2 0 .3-.2.4-.3l.4-.4.2-.2v-.1l.2-.4.1-.3v-.3a28868.1 28868.1 0 0 0 0-16.7l-.3.6z" fill="url(#v)" transform="translate(50 207.4)"/><path d="M99.4 221.6c0 .9-1 2-2.1 2.8L78.7 235a9.3 9.3 0 0 1-8.3 0l-18.7-10.6c-1.3-.7-1.2-1.6-1.1-2.6" stroke="#A3B1D9" stroke-width=".5" stroke-linecap="round"/><path d="M99.5 230c0 1-1 1.9-2.2 2.6l-18.6 10.6a9.3 9.3 0 0 1-8.3 0l-18.7-10.6c-1.3-.7-1.3-1.9-1.3-2.8" stroke="#A3B1D9" stroke-width=".5" opacity=".4" stroke-linecap="round"/><g fill="#A4B8EB"><path d="M94 237.5l-1.7 1v2.7l1.7-1z"/><path opacity=".5" d="M91.2 239.1l-1.7 1v2.7l1.7-1z"/><path d="M96.8 235.9l-1.7 1v2.7l1.7-1z"/></g><path d="M56.4 243l13.4 7.5a9.4 9.4 0 0 0 9.8.3l17.6-10c1.8-1.3 1.9-1.8 1.9-2.7v-16.6c0-1-3-2.5-4.8-3.6l-16-8.9a9 9 0 0 0-6.8 0l-19.8 11.2c-.7.5-.9 1.4-.9 1.8v14.8c0 2.6 2.7 4.8 5.6 6.2z" stroke="#555A6F" stroke-width="1.3" stroke-linejoin="round"/><path d="M26.6 9.2c.3.2.4.5 0 .8-.4.2-1 .2-1.3 0l-2.4-1.4c-.6-.3-1.6-.3-2.2 0l-6.5 3.7c-.6.4-.6 1 0 1.3l2.3 1.4c.4.2.4.5 0 .7-.3.2-1 .2-1.3 0L13 14.4c-1.4-.8-1.4-2 0-2.8l6.4-3.7c1.4-.8 3.6-.8 5 0l2.3 1.3zm9.7 5.5c1.3.8 1.4 2 0 2.8l-6.5 3.8c-1.3.7-3.5.7-4.9 0l-2.3-1.4c-.4-.2-.4-.5 0-.7.3-.2 1-.2 1.3 0l2.3 1.3c.7.4 1.7.4 2.3 0l6.5-3.7c.6-.4.6-1 0-1.3l-2.4-1.3c-.4-.3-.4-.6 0-.8.4-.2 1-.2 1.3 0l2.4 1.3zm-4.8.3c.2.1.3.3.3.4 0 .3-.5.6-1 .5l-11.3-.4.7-3.5c.1-.3.6-.5 1-.5.3 0 .5 0 .6.2.2 0 .3.2.3.4l-.5 2.4 9.3.4.6.1z" fill="url(#y)" fill-rule="nonzero" transform="translate(50 207.4)"/></g></g><g><path d="M141.6 298.5l-3-2.8-3 2.8h-22.2a2.5 2.5 0 0 0-2.5 2.6v9.8c0 1.4 1.1 2.5 2.5 2.5h51.8c1.4 0 2.5-1 2.5-2.5v-9.8c0-1.4-1.1-2.6-2.5-2.6h-23.6z" stroke="#555A6F" fill="#F0F1F7"/><path d="M121 304.7v1.5h1.4v-1.5H121zm1.4-.9v-1.4H121v1.4h1.4zM121 307c0 1.4-.3 2.5-.7 3.4l-.8-.6c.4-1 .6-2 .7-3.4v-4.9h3v7.8c0 .7-.2 1-.9 1h-.8l-.2-.8h.8c.2 0 .3-.1.3-.5v-2H121zm3.8-1v3.6c.6-.3 1-.6 1.4-1-.6-.8-1-1.6-1.2-2.6h-.2zm0 3.6v.8h-.9v-8.9h4.3l-.2 2.6c-.1.4-.5.6-1.2.6h-.8l-.3-.8h1.2s.2-.1.2-.3l.1-1.2h-2.4v2.8h3.4v.8c-.2 1-.5 1.8-.9 2.5l1.4 1-.4.9a8 8 0 0 1-1.5-1.2c-.4.5-1 .9-1.5 1.2l-.5-.8zm1-3.6c.2.7.5 1.3.9 1.8l.7-1.8h-1.6zm6.6-4.9l1 .1-.4.7h4.3v.8c-.6.7-1.3 1.3-2.2 1.8 1.1.4 2.3.7 3.6.8l-.4.9c-1.6-.2-3-.6-4.2-1.2-1.2.6-2.6 1-4.2 1.2l-.4-.9a16 16 0 0 0 3.6-.8l-1.4-1-1 .8-.7-.7c1.2-.7 2-1.5 2.4-2.5zm1.7 3c.7-.4 1.3-.8 1.8-1.3h-3.5c.5.5 1 .9 1.7 1.2zm-.7 1.5h1l-.2 1h3.5c0 1.8-.2 2.9-.5 3.2-.2.3-.7.5-1.4.5h-1.3l-.2-.9h1.2c.5 0 .9 0 1-.3.1-.2.2-.7.2-1.6H134l-.3.7c-.5.9-1.7 1.6-3.5 2.2l-.6-.8c1.6-.4 2.7-1 3.2-1.7l.2-.4h-2.8v-.9h3l.2-1zm6.3-2.5h.8c0 1 0 2-.2 3l-.8-.2.2-2.8zm1.2-1.9h.9v2.1l.7-.9.4.7V302h2.3l-.4-.7 1-.2.3.9h2.3v1.8h-.9v-1h-3.7v1h-.9v-.6l-1.1 1.1v.6l-.1 1.7 1.4 1.9-.5.8-1-1.7a6 6 0 0 1-1.4 2.8l-.7-.6c.9-1 1.4-2.6 1.4-4.9v-3.7zm4.5 3.5h.5c.8.8 1.8 1.5 3 2.2l-.6.8-.5-.4v3h-.9v-.3h-2.5v.4h-1v-3l-.4.3-.5-.8 2.9-2.2zm-1 4.5h2.5v-1.4h-2.5v1.4zm-.4-2.3l1.6-1.4c.5.5 1 1 1.7 1.4H144zm2.5-3.6c.8.5 1.5 1 2 1.6l-.6.6a12 12 0 0 0-2-1.7l.6-.5zm-1.8 0l.6.6c-.5.6-1.2 1.1-2 1.6l-.5-.7c.7-.4 1.4-1 1.9-1.5zm5-1.7h.9v7.2h3.3v.9h-4.1v-8.1zm1.2 2.6h1.4v-3h.9v3h1.2v.9h-1.2v.2l1.3 1.3-.5.8-.8-1.3v2.4h-1v-2.4c-.2.6-.6 1.2-1.1 1.7l-.4-1c.7-.5 1.2-1 1.5-1.7H151v-.9zm2.8-2.5l.8.1c0 .8-.2 1.4-.4 2l-.7-.2c.2-.6.3-1.2.3-1.9zm-2.1.1l.4 1.9-.7.2-.5-1.8.8-.3zm4.2 3.3v.6c0 2-.3 3.6-1 4.6l-.8-.4c.6-1 1-2.4 1-4.2v-3.9c1.2 0 2.3-.3 3.1-.7l.5.8a9 9 0 0 1-2.8.6v1.7h3v.9h-1v5.3h-.9V305h-1.1z" fill="#000"/><g><path fill="url(#g)" opacity=".2" d="M23.7 45l48.9.7-23-18.4z" transform="translate(124.5 250.2)"/><path d="M47.3 12.2c2.3 1.3 2.3 3.4 0 4.7L28.9 27.6a9.3 9.3 0 0 1-8.4 0L1.7 16.9c-2.3-1.3-2.3-3.4 0-4.7L20.3 1.5c2.3-1.3 6-1.3 8.3 0l18.7 10.7z" fill="url(#u)" transform="translate(124.5 250.2)"/><path d="M48.7 15.3v.1a3 3 0 0 1-.6.5l-.4.3-.3.3-18.6 10.7a6.6 6.6 0 0 1-1.6.6 8.3 8.3 0 0 1-1.3.3h-1.2-.1a11 11 0 0 1-2.1-.2h-.2l-.8-.3h-.1l-1-.4L1.9 16.5C.6 15.8 0 15 0 14.1v17.2c0 .9.6 1.7 1.7 2.4l18.7 10.6.9.4.2.1.5.2h.3l.2.1h.1l.6.1h.4l.2.1H25.9l.5-.1h.2l.6-.2.3-.1h.1l1.2-.6 18.6-10.6.3-.3c.2 0 .3-.2.4-.3l.4-.4.2-.2v-.1l.2-.4.1-.3v-.3a28868.1 28868.1 0 0 0 0-16.7l-.3.6z" fill="url(#v)" transform="translate(124.5 250.2)"/><path d="M174 264.4c0 .9-1 2-2.1 2.7l-18.6 10.7a9.3 9.3 0 0 1-8.3 0l-18.7-10.7c-1.2-.6-1.2-1.6-1.1-2.5" stroke="#A3B1D9" stroke-width=".5" stroke-linecap="round"/><path d="M174 272.8c.1 1-1 1.9-2.1 2.5L153.3 286a9.3 9.3 0 0 1-8.3 0l-18.7-10.7c-1.2-.6-1.3-1.8-1.2-2.7" stroke="#A3B1D9" stroke-width=".5" opacity=".4" stroke-linecap="round"/><g fill="#A4B8EB"><path d="M168.6 280.3l-1.7 1v2.7l1.7-1z"/><path opacity=".5" d="M165.8 282l-1.7.9v2.7l1.7-1z"/><path d="M171.4 278.6l-1.7 1v2.7l1.7-1z"/></g><path d="M131 285.8l13.5 7.5a9.4 9.4 0 0 0 9.7.3l17.6-10c1.9-1.3 1.9-1.8 1.9-2.8v-16.5c0-1-3-2.6-4.8-3.6l-16-9a9 9 0 0 0-6.8 0L126.3 263c-.7.5-.8 1.4-.8 1.8v14.7c0 2.6 2.6 4.8 5.5 6.3z" stroke="#555A6F" stroke-width="1.3" stroke-linejoin="round"/><path d="M18 17.2L32 15.5l.2-.3-.1-.3-8.8-6-5.2 8.3m18-.7c-.3.3-.8.5-1.5.5-.6 0-1.2 0-1.7-.2h-.1l-.2-.1-.1-.1-.3-.2-13 1.5v.2l-.4.4c-.3.3-.9.5-1.5.6-.6 0-1.2 0-1.7-.2h-.1l-.2-.2c-.7-.4-.8-1-.3-1.5.3-.3.8-.5 1.4-.6h.3L22 8.1l-.3-.2 1.2-.6 10.7 7.3h.4c.5 0 1 0 1.6.2l.3.1c.7.4.8 1 .2 1.6" fill="url(#z)" fill-rule="nonzero" transform="translate(124.5 250.2)"/></g></g><g><path d="M217.1 342.2l-3-2.8-2.9 2.8H189a2.5 2.5 0 0 0-2.5 2.5v10c0 1.3 1.1 2.4 2.5 2.4h51.8c1.4 0 2.5-1.1 2.5-2.5v-9.9c0-1.4-1.1-2.5-2.5-2.5h-23.6z" stroke="#555A6F" fill="#F0F1F7"/><path d="M195.3 346h2.2l.2-1.2h.9l-.2 1.2h5.5v1h-5.6l-.6 2a9.4 9.4 0 0 1-2.2 3.2l-.5-.8c.8-.7 1.4-1.6 1.9-2.7l.5-1.8h-2v-.9zm1 7.3c2.2-.5 3.4-1.6 3.7-3.3v-2.7h1v2.6a4.9 4.9 0 0 0 3.3 3.4l-.5.8a5.4 5.4 0 0 1-3.2-3c-.6 1.5-2 2.5-3.9 3l-.5-.8zm6.4-5.2l.8.3c-.3 1-.7 1.8-1.2 2.5l-.8-.4c.5-.7 1-1.5 1.2-2.4zm-4.2.3l.8.2c-.2.8-.4 1.7-.8 2.4l-.8-.2c.4-.8.6-1.6.8-2.4zm8.7 2h6v.6c-.6.6-1.2 1.2-2 1.6 1 .3 2 .6 3 .7l-.4.8c-1.3-.2-2.5-.5-3.4-1-1 .5-2.2.8-3.5 1l-.4-.8 3-.7c-.7-.5-1.2-1-1.6-1.5h-.7v-.8zm1.7.7c.4.4.9.8 1.4 1 .6-.2 1.1-.6 1.5-1h-3zm-2.1-2.9v.6c0 2.2-.4 4-1.1 5.2l-.7-.6c.5-1.1.8-2.7.8-4.6v-3.3h3.8l-.3-.6 1-.1.3.7h3.4v1h-7.2v.8h1.5v-.6h.9v.6h2.3v-.6h1v.6h1.5v1h-1.5v1.5h-4.2v-1.6h-1.5zm2.4 0v.8h2.3v-.8h-2.3zm6.5-.2l.8-2.9.9.2-.5 1.8h1.5l.4-2.3 1 .1a25 25 0 0 1-.4 2.2h4.5v1h-4.8l-.3.9h4v.8a5 5 0 0 1-1.5 2.2l2.8 1.2-.5.9c-1.2-.5-2.3-1-3-1.5-.9.6-1.8 1-3 1.5l-.5-.9c1-.3 1.9-.7 2.6-1.2-.7-.5-1.2-1-1.5-1.6-.7 1.4-1.6 2.6-2.7 3.5l-.5-.9a11 11 0 0 0 3.1-5h-2.4zm3.2 1.8c.3.6.9 1.2 1.6 1.7.6-.5 1-1 1.3-1.7H219zm2.6-5c.7.5 1.2 1 1.7 1.6l-.7.7c-.4-.6-1-1.1-1.7-1.7l.7-.6zm8.3 2.7h1v1.1h2.7v3.4c0 .7-.3 1-1 1h-1l-.2-.8h.9c.3 0 .4-.1.4-.4v-2.3h-1.8v4.6h-1v-4.6H228v3.7h-1v-3.8c-.4.5-.9 1-1.4 1.3l-.6-.8c1.2-.8 2.1-1.8 2.8-3h-2.5v-.9h3l.5-1.2h1l-.4 1.2h4.7v1h-5.2a13 13 0 0 1-1.1 1.6h2v-1.1z" fill="#000"/><g><path fill="url(#A)" opacity=".2" d="M19.6 57.6l25.4.2V30.5L28.2 39v.9l9.7 5v2z" transform="translate(200 281.1)"/><path d="M207.5 329.7l17.2-10.2 11.9 6.7v1.6l-17.2 10.5-11.9-7.2v-1.4z" stroke="#555A6F" stroke-width="1.3"/><path fill="#F5F9FF" d="M219.5 336.8v1.5l-12-7.2v-1.4z"/><path fill="#D5E0F3" d="M219.5 336.8l17.1-10.6v1.6l-17.1 10.5z"/><path fill="#F1F6FF" d="M207.6 329.7l17.2-10.2 11.8 6.7-17.1 10.6z"/><path stroke-opacity=".6" stroke="#7787C3" stroke-width=".7" d="M210.7 331.4l8.8 5.3v2-2l17.4-10.6"/><g><path fill="#F7FAFF" d="M218 324.7v7.6l-1.5-.8v-7.7z"/><path fill="#E3EBF9" d="M218 324.7l10.4-6v7.6l-10.4 6z"/><path stroke="#555A6F" stroke-width=".9" d="M216.5 327.2v4.2l1.5.9 10.5-6v-6l-10.5 6.1v5.9"/></g><g><path d="M40.7 2l.1-.1h.1a1.5 1.5 0 0 1 .4-.1h.4l.1.1L39.2.4h-.1L39 .2h-.1-.4-.4v.1H38l-.3.1L2.2 21.2l-.3.2-.3.3-.1.1-.2.2-.1.2a3 3 0 0 0-.2.2v.1H.8l-.1.3-.1.2H.5v.1l-.1.2v.2H.3v.2l-.1.2v.2l-.1.1v26.5c0 .6.2 1.1.6 1.3l2.7 1.6c-.4-.3-.7-.7-.7-1.4V26.4 26v-.2-.1-.1l.1-.2.1-.2V25l.1-.3a5 5 0 0 1 .3-.4l.1-.3a5.4 5.4 0 0 1 .4-.5v-.1a4.9 4.9 0 0 1 .6-.5l.4-.2L40.4 2a2.5 2.5 0 0 1 .3-.2" fill="url(#B)" transform="translate(200 281.1)"/><path d="M239.7 283.6c1.1-.7 2-.1 2 1.2l.2 25.4c0 1.4-1 3-2.1 3.7l-35.2 20.3c-1.1.7-2 .1-2-1.2l-.1-25c0-1.4.9-3 2-3.7l35.2-20.7z" stroke-opacity=".6" stroke="#7787C3" stroke-width=".7" fill="#E5EAF3"/><path fill="#F3F6FD" d="M205 306.5l34.6-20.3-.1 24.7-34.6 20.3z"/><path d="M202.7 334.6v.1l-1.8-1.5c-.4-.3-.6-.7-.6-1.4V306a3.8 3.8 0 0 1 0-1l.1-.2v-.2a4.4 4.4 0 0 1 .2-.3l.1-.2.1-.2.2-.2v-.2h.2a2.6 2.6 0 0 1 .2-.4 5.3 5.3 0 0 1 .6-.5l.3-.2 35.5-20.7a2.7 2.7 0 0 1 .7-.3h.7v.1l1.9 1.5c.4.2.7.7.7 1.4v25.8c0 1.3-.9 3-2 3.7l-35.5 20.6c-.7.4-1.2.4-1.6.1z" stroke="#555A6F" stroke-width="1.8" stroke-linejoin="round"/></g><path d="M22 28.2V27l1.4-.9v-5.3l-4.6 2.8v1.8l-1.2.8V24c0-.6.4-1.4 1-1.7l5-3.1c.3-.2.6-.2.7 0 .2 0 .3.2.4.6v5.9c0 .6-.5 1.4-1 1.7l-1.7 1v3.1c0 .7-.5 1.5-1 1.8L15 36.8c-.3.2-.5.2-.7 0-.2 0-.3-.3-.3-.6v-6.7c0-.7.4-1.5 1-1.8l2.5-1.6 1.2-.8 2-1.2h.1c.3-.2.5-.2.7 0 .2 0 .3.3.3.6v3.5zM20.7 32v-6.2L15.3 29v6.2l5.4-3.3zm11-14.6l-1.4-.1-4.7 12-.3 2.9 1.7-2.7 4.6-12zm-2-1.8l3.6.3-5.3 14-3.5 5.4c-.3.4-.6.5-.7.5 0 0-.1-.3 0-.8l.6-5.5 5.4-14z" fill="url(#C)" fill-rule="nonzero" transform="translate(200 281.1)"/></g></g><g><path d="M296.3 386l-3-3-3 3h-22.2a2.5 2.5 0 0 0-2.5 2.4v9.9c0 1.4 1.1 2.5 2.5 2.5h51.8c1.4 0 2.5-1.1 2.5-2.5v-9.9c0-1.4-1.1-2.5-2.5-2.5h-23.6z" stroke="#555A6F" fill="#F0F1F7"/><path d="M283 389.4v2.3h-1v-1.4h-6.5v1.4h-1v-2.3h3.7c0-.3-.2-.5-.4-.8l1-.2.5 1h3.7zm-8.6 2.8h2.7l.8-1.6 1 .3-.7 1.3h5v1h-1.9c-.4.9-.8 1.7-1.3 2.3l3 1.4-.6.9c-1-.6-2-1.2-3-1.6a6.8 6.8 0 0 1-4.5 1.5l-.6-.9c1.7 0 3-.3 4-1-.9-.4-1.8-.8-2.7-1l1-1.7h-2.2v-1zm3.3 1l-.7 1.2 2 .7c.6-.6 1-1.2 1.3-2h-2.6zm10.8-4.7h.6a14 14 0 0 0 4.4 3l-.5.9-1.4-.8v1h-2.3v1.4h2.8v1h-2.8v1.5h3.7v1h-8.4v-1h3.7V395h-2.8v-.9h2.8v-1.5H286v-.9l-1.4.8-.5-.8c1.7-.8 3.2-1.9 4.4-3.1zm-2.5 3.1h5.6c-1-.6-2-1.4-2.8-2.2-.8.8-1.7 1.5-2.8 2.2zm14-3h1l-.2 2.4c.6 2.4 1.5 4.4 2.7 5.9l-.6.8a14 14 0 0 1-2.3-4.7l-.1.4a7.3 7.3 0 0 1-2.6 4.3l-.6-.8c1.1-1 1.9-2.2 2.2-3.6.3-1.2.5-2.8.5-4.7zm-4.5 0l1.7 1.5-.7.6-1.6-1.5.6-.6zm-1.3 2.9h2.3v4.2l1-1 .3 1a16 16 0 0 1-2 1.7l-.4-.9.2-.5v-3.6h-1.4v-1zm16.1-1.7h-2.7v-1h5.7v1h-2v2.6h1.8v.9h-1.8v3.2h2.2v.9h-6.2v-1h1v-5h.9v5h1.1v-6.6zm-4.7-1.2l1.6 1.5-.7.6c-.4-.5-.9-1-1.6-1.5l.7-.6zm-1.4 2.9h2.3v4.1l.9-.8.2 1-1.9 1.6-.4-1c.2 0 .3-.2.3-.4v-3.6h-1.4v-1z" fill="#000"/><g><path fill="url(#p)" opacity=".2" d="M30 44.6h29.1V17H30z" transform="translate(272.9 336.7)"/><path d="M45.4 11.8L45 13l-.1.2-.8 1.1-.4.4c-.2.4-.6.7-1 1v16.6l.6-.4.4-.5.4-.4.1-.2.7-1v-.1l.4-.8v-.4l.2-.2v-.3l.1-.9V10.3l-.1 1.2-.1.3z" fill="url(#q)" transform="translate(272.9 336.7)"/><path d="M44.6 23l-.1.2-1 1.2-1 .6-.7.6a14 14 0 0 1-3.5 1.4 18.4 18.4 0 0 1-2.8.6h-.4c-.7.2-1.4.2-2.1.2h-.4l-2-.1h-.4l-2-.4-.4-.1a17 17 0 0 1-1.8-.6h-.3a14 14 0 0 1-1.9-1L4 14C1.5 12.4.2 10.5.2 8.6v16.6c0 2 1.3 3.9 3.8 5.3l19.8 12 1.8 1 .5.1 1 .4.7.2h.4l.3.1 1.3.3h.7l.5.1h4.1l.4-.1 1.1-.2h.5l1.2-.4.7-.2.3-.1a14.1 14.1 0 0 0 2.6-1.2l.7-.5.9-.7.8-.9.2-.2.1-.2.2-.4.4-.7v-.1-.2l.2-.4v-.8-17.1c0 .5 0 1-.2 1.4v.1l-.6 1.2z" fill="url(#D)" transform="translate(272.9 336.7)"/><path d="M42.7 15.6c4 3 3.7 7.3-1 10-4.9 3-13 3-17.9 0L4 14c-5-3-5-7.7 0-10.6C8.4.6 15.7.3 20.7 2.7a24.3 24.3 0 0 1 20.2 1c5.5 3.2 6.1 8.3 1.7 12" fill="url(#s)" transform="translate(272.9 336.7)"/><path d="M303.3 337.6c3.8 0 7.6 1 10.6 2.7 5.5 3.3 6 8.4 1.7 12 4 3 3.6 7.2-1 10-4.9 2.9-13 2.9-18 0L277 350.6c-2.5-1.5-3.7-3.3-3.8-5.2" stroke="#A3B1D9" stroke-width=".5"/><path d="M318.3 365.9c0 1.8-1.3 3.7-3.6 5-5 3-13 3-18 0l-19.8-11.6c-2.5-1.4-3.7-3.3-3.8-5.2" stroke="#A3B1D9" stroke-width=".5" opacity=".4"/><path d="M318.6 361v-14.1" stroke="#A3B1D9" stroke-width=".9"/><path d="M273.8 355.2v5.5c0 1.8-.5 3.6 3.4 6.4l20.1 12.2c7 3.6 14.4 1.2 15.5.6 1-.6 5.2-2.3 5.2-6.4V365v-5c.5.2 0-8.5 0-13.5s-9.8-8.3-13.7-8.6c-4-.3-7 0-10.3 1.4-1.2-.6-6.8-2.7-12.6-1-5.9 1.7-7.6 5-7.6 6.7v10.3z" stroke="#555A6F" stroke-width="1.3" stroke-linejoin="round"/><path fill="#C6D0E9" d="M276.3 352.5l1.9 1.3v3.1l-2-1.3z"/><path fill="#C6D0E9" opacity=".5" d="M279.4 354.4l1.9 1.3v3l-1.9-1.2z"/><path d="M33.5 14.2l.8-.4A9.9 9.9 0 0 1 31.5 9a31 31 0 0 1-8.2-1.7l-.2.1c-.2 0-.3.2-.4.3-1.4 1-3.8 2.7-4.3 4.7-.3 1 0 2.4.7 4 2.7.4 4.9.6 6.7.4 2.9-.3 5.5-1.6 7.5-2.5l.2-.1zm3-.2c-.2.3-.5.5-.8.6l-.9.4-.3.2c-2 1-5 2.3-8.4 2.7-2.2.2-4.7 0-8-.5H18l-.3-.2-.2-.1v-.2c-1-1.8-1.2-3.4-1-4.7.7-2.3 3.3-4.1 4.8-5.2l.4-.3.4-.3s.6-.4 1.2-.4h.3l.2.1A27 27 0 0 0 32 8h.2l.7.3.5.3v.2a9 9 0 0 0 3 4.8l.2.3-.2.2z" fill="url(#E)" fill-rule="nonzero" transform="translate(272.9 336.7)"/></g></g><g fill="#3A51C6" fill-rule="nonzero" opacity=".6"><path d="M216.2 155.4l-5.8-3.4-1.1.7 5.7 3.4 1.2-.7zm-3.7 2.1l1.2-.7-5.8-3.3-1.2.7 5.8 3.3zm5.2-4.2l-.8-.1-2.6-.5 4.8 2.8-7 4-1.5-.9.5-.3-5.7-3.3-.6.3-1.5-1 5-3-3-.7.8-1.2a52 52 0 0 0 8.8 2.3l-6.2-3.6 1.5-.8 5.2 3 1.3-.8-4-2.3 1.4-.8 4 2.3 1.4-.8 1.6.9-1.4.8 3.2 1.8-1.4.9-3.2-1.9-1.3.8 1.7 1c2.3.2 4.5.3 6.7.1l.3 1.2H221l2.4 1.5-1.4.8-4.4-2.5zM203.5 144l2.4-.7-3.8-2.2-1.3 1.3 2.7 1.6m1.5.9l3.3 1.9-1.5.9-10.5-6-1.9 1c-2.3 1.3-4.7 2.1-7.1 2.4l-.2-1.3c1.9-.2 3.8-.9 5.8-2l3.4-2 3 1.8 1.3-1.4-2.7-1.5 1.5-.8 5.2 3 .6-1.1 2 .7-1 1.3 5 3-1.4.8-2.5-1.4-2.3.7M193.4 133l-2.5 1.3 4.7 2.8-1.5.8-4.7-2.7-2.8 1.7 4.4 2.5-1.5.9-4.4-2.5-3.3 1.8 5.7 3.3-1.5.9-13.2-7.6 1.5-1 6 3.5 3.2-1.9-4.2-2.4 1.5-.8 4.2 2.4 2.9-1.7-3.2-1.8a25 25 0 0 1-5.5.6l.3-1.3c2.7 0 5.4-.6 8.3-1.7l1.2 1c-.7.4-1.5.6-2.2.8l2.6 1.5 2.4-1.4 1.6 1z"/></g></g></g></svg>